<?xml version="1.0" encoding="utf-8" standalone="no"?>
<!DOCTYPE svg PUBLIC "-//W3C//DTD SVG 1.1//EN"
  "http://www.w3.org/Graphics/SVG/1.1/DTD/svg11.dtd">
<svg xmlns:xlink="http://www.w3.org/1999/xlink" width="720pt" height="288pt" viewBox="0 0 720 288" xmlns="http://www.w3.org/2000/svg" version="1.1">
 <metadata>
  <rdf:RDF xmlns:dc="http://purl.org/dc/elements/1.1/" xmlns:cc="http://creativecommons.org/ns#" xmlns:rdf="http://www.w3.org/1999/02/22-rdf-syntax-ns#">
   <cc:Work>
    <dc:type rdf:resource="http://purl.org/dc/dcmitype/StillImage"/>
    <dc:date>2022-06-11T13:49:52.817016</dc:date>
    <dc:format>image/svg+xml</dc:format>
    <dc:creator>
     <cc:Agent>
      <dc:title>Matplotlib v3.5.1, https://matplotlib.org/</dc:title>
     </cc:Agent>
    </dc:creator>
   </cc:Work>
  </rdf:RDF>
 </metadata>
 <defs>
  <style type="text/css">*{stroke-linejoin: round; stroke-linecap: butt}</style>
 </defs>
 <g id="figure_1">
  <g id="patch_1">
   <path d="M 0 288 
L 720 288 
L 720 0 
L 0 0 
L 0 288 
z
" style="fill: none"/>
  </g>
  <g id="axes_1">
   <g id="patch_2">
    <path d="M 59.8025 235.9375 
L 352.307669 235.9375 
L 352.307669 42.48 
L 59.8025 42.48 
L 59.8025 235.9375 
z
" style="fill: none"/>
   </g>
   <g id="matplotlib.axis_1">
    <g id="xtick_1">
     <g id="line2d_1">
      <path d="M 73.098189 235.9375 
L 73.098189 42.48 
" clip-path="url(#p60e999ccb0)" style="fill: none; stroke-dasharray: 0.8,1.32; stroke-dashoffset: 0; stroke: #b0b0b0; stroke-width: 0.8"/>
     </g>
     <g id="line2d_2">
      <defs>
       <path id="mfae0b7acc1" d="M 0 0 
L 0 3.5 
" style="stroke: #000000; stroke-width: 0.8"/>
      </defs>
      <g>
       <use xlink:href="#mfae0b7acc1" x="73.098189" y="235.9375" style="stroke: #000000; stroke-width: 0.8"/>
      </g>
     </g>
     <g id="text_1">
      <!-- 0.0 -->
      <g transform="translate(62.761158 252.815469)scale(0.13 -0.13)">
       <defs>
        <path id="DejaVuSans-30" d="M 2034 4250 
Q 1547 4250 1301 3770 
Q 1056 3291 1056 2328 
Q 1056 1369 1301 889 
Q 1547 409 2034 409 
Q 2525 409 2770 889 
Q 3016 1369 3016 2328 
Q 3016 3291 2770 3770 
Q 2525 4250 2034 4250 
z
M 2034 4750 
Q 2819 4750 3233 4129 
Q 3647 3509 3647 2328 
Q 3647 1150 3233 529 
Q 2819 -91 2034 -91 
Q 1250 -91 836 529 
Q 422 1150 422 2328 
Q 422 3509 836 4129 
Q 1250 4750 2034 4750 
z
" transform="scale(0.015625)"/>
        <path id="DejaVuSans-2e" d="M 684 794 
L 1344 794 
L 1344 0 
L 684 0 
L 684 794 
z
" transform="scale(0.015625)"/>
       </defs>
       <use xlink:href="#DejaVuSans-30"/>
       <use xlink:href="#DejaVuSans-2e" x="63.623047"/>
       <use xlink:href="#DejaVuSans-30" x="95.410156"/>
      </g>
     </g>
    </g>
    <g id="xtick_2">
     <g id="line2d_3">
      <path d="M 117.417154 235.9375 
L 117.417154 42.48 
" clip-path="url(#p60e999ccb0)" style="fill: none; stroke-dasharray: 0.8,1.32; stroke-dashoffset: 0; stroke: #b0b0b0; stroke-width: 0.8"/>
     </g>
     <g id="line2d_4">
      <g>
       <use xlink:href="#mfae0b7acc1" x="117.417154" y="235.9375" style="stroke: #000000; stroke-width: 0.8"/>
      </g>
     </g>
     <g id="text_2">
      <!-- 2.5 -->
      <g transform="translate(107.080123 252.815469)scale(0.13 -0.13)">
       <defs>
        <path id="DejaVuSans-32" d="M 1228 531 
L 3431 531 
L 3431 0 
L 469 0 
L 469 531 
Q 828 903 1448 1529 
Q 2069 2156 2228 2338 
Q 2531 2678 2651 2914 
Q 2772 3150 2772 3378 
Q 2772 3750 2511 3984 
Q 2250 4219 1831 4219 
Q 1534 4219 1204 4116 
Q 875 4013 500 3803 
L 500 4441 
Q 881 4594 1212 4672 
Q 1544 4750 1819 4750 
Q 2544 4750 2975 4387 
Q 3406 4025 3406 3419 
Q 3406 3131 3298 2873 
Q 3191 2616 2906 2266 
Q 2828 2175 2409 1742 
Q 1991 1309 1228 531 
z
" transform="scale(0.015625)"/>
        <path id="DejaVuSans-35" d="M 691 4666 
L 3169 4666 
L 3169 4134 
L 1269 4134 
L 1269 2991 
Q 1406 3038 1543 3061 
Q 1681 3084 1819 3084 
Q 2600 3084 3056 2656 
Q 3513 2228 3513 1497 
Q 3513 744 3044 326 
Q 2575 -91 1722 -91 
Q 1428 -91 1123 -41 
Q 819 9 494 109 
L 494 744 
Q 775 591 1075 516 
Q 1375 441 1709 441 
Q 2250 441 2565 725 
Q 2881 1009 2881 1497 
Q 2881 1984 2565 2268 
Q 2250 2553 1709 2553 
Q 1456 2553 1204 2497 
Q 953 2441 691 2322 
L 691 4666 
z
" transform="scale(0.015625)"/>
       </defs>
       <use xlink:href="#DejaVuSans-32"/>
       <use xlink:href="#DejaVuSans-2e" x="63.623047"/>
       <use xlink:href="#DejaVuSans-35" x="95.410156"/>
      </g>
     </g>
    </g>
    <g id="xtick_3">
     <g id="line2d_5">
      <path d="M 161.736119 235.9375 
L 161.736119 42.48 
" clip-path="url(#p60e999ccb0)" style="fill: none; stroke-dasharray: 0.8,1.32; stroke-dashoffset: 0; stroke: #b0b0b0; stroke-width: 0.8"/>
     </g>
     <g id="line2d_6">
      <g>
       <use xlink:href="#mfae0b7acc1" x="161.736119" y="235.9375" style="stroke: #000000; stroke-width: 0.8"/>
      </g>
     </g>
     <g id="text_3">
      <!-- 5.0 -->
      <g transform="translate(151.399088 252.815469)scale(0.13 -0.13)">
       <use xlink:href="#DejaVuSans-35"/>
       <use xlink:href="#DejaVuSans-2e" x="63.623047"/>
       <use xlink:href="#DejaVuSans-30" x="95.410156"/>
      </g>
     </g>
    </g>
    <g id="xtick_4">
     <g id="line2d_7">
      <path d="M 206.055084 235.9375 
L 206.055084 42.48 
" clip-path="url(#p60e999ccb0)" style="fill: none; stroke-dasharray: 0.8,1.32; stroke-dashoffset: 0; stroke: #b0b0b0; stroke-width: 0.8"/>
     </g>
     <g id="line2d_8">
      <g>
       <use xlink:href="#mfae0b7acc1" x="206.055084" y="235.9375" style="stroke: #000000; stroke-width: 0.8"/>
      </g>
     </g>
     <g id="text_4">
      <!-- 7.5 -->
      <g transform="translate(195.718053 252.815469)scale(0.13 -0.13)">
       <defs>
        <path id="DejaVuSans-37" d="M 525 4666 
L 3525 4666 
L 3525 4397 
L 1831 0 
L 1172 0 
L 2766 4134 
L 525 4134 
L 525 4666 
z
" transform="scale(0.015625)"/>
       </defs>
       <use xlink:href="#DejaVuSans-37"/>
       <use xlink:href="#DejaVuSans-2e" x="63.623047"/>
       <use xlink:href="#DejaVuSans-35" x="95.410156"/>
      </g>
     </g>
    </g>
    <g id="xtick_5">
     <g id="line2d_9">
      <path d="M 250.374049 235.9375 
L 250.374049 42.48 
" clip-path="url(#p60e999ccb0)" style="fill: none; stroke-dasharray: 0.8,1.32; stroke-dashoffset: 0; stroke: #b0b0b0; stroke-width: 0.8"/>
     </g>
     <g id="line2d_10">
      <g>
       <use xlink:href="#mfae0b7acc1" x="250.374049" y="235.9375" style="stroke: #000000; stroke-width: 0.8"/>
      </g>
     </g>
     <g id="text_5">
      <!-- 10.0 -->
      <g transform="translate(235.901393 252.815469)scale(0.13 -0.13)">
       <defs>
        <path id="DejaVuSans-31" d="M 794 531 
L 1825 531 
L 1825 4091 
L 703 3866 
L 703 4441 
L 1819 4666 
L 2450 4666 
L 2450 531 
L 3481 531 
L 3481 0 
L 794 0 
L 794 531 
z
" transform="scale(0.015625)"/>
       </defs>
       <use xlink:href="#DejaVuSans-31"/>
       <use xlink:href="#DejaVuSans-30" x="63.623047"/>
       <use xlink:href="#DejaVuSans-2e" x="127.246094"/>
       <use xlink:href="#DejaVuSans-30" x="159.033203"/>
      </g>
     </g>
    </g>
    <g id="xtick_6">
     <g id="line2d_11">
      <path d="M 294.693014 235.9375 
L 294.693014 42.48 
" clip-path="url(#p60e999ccb0)" style="fill: none; stroke-dasharray: 0.8,1.32; stroke-dashoffset: 0; stroke: #b0b0b0; stroke-width: 0.8"/>
     </g>
     <g id="line2d_12">
      <g>
       <use xlink:href="#mfae0b7acc1" x="294.693014" y="235.9375" style="stroke: #000000; stroke-width: 0.8"/>
      </g>
     </g>
     <g id="text_6">
      <!-- 12.5 -->
      <g transform="translate(280.220358 252.815469)scale(0.13 -0.13)">
       <use xlink:href="#DejaVuSans-31"/>
       <use xlink:href="#DejaVuSans-32" x="63.623047"/>
       <use xlink:href="#DejaVuSans-2e" x="127.246094"/>
       <use xlink:href="#DejaVuSans-35" x="159.033203"/>
      </g>
     </g>
    </g>
    <g id="xtick_7">
     <g id="line2d_13">
      <path d="M 339.011979 235.9375 
L 339.011979 42.48 
" clip-path="url(#p60e999ccb0)" style="fill: none; stroke-dasharray: 0.8,1.32; stroke-dashoffset: 0; stroke: #b0b0b0; stroke-width: 0.8"/>
     </g>
     <g id="line2d_14">
      <g>
       <use xlink:href="#mfae0b7acc1" x="339.011979" y="235.9375" style="stroke: #000000; stroke-width: 0.8"/>
      </g>
     </g>
     <g id="text_7">
      <!-- 15.0 -->
      <g transform="translate(324.539323 252.815469)scale(0.13 -0.13)">
       <use xlink:href="#DejaVuSans-31"/>
       <use xlink:href="#DejaVuSans-35" x="63.623047"/>
       <use xlink:href="#DejaVuSans-2e" x="127.246094"/>
       <use xlink:href="#DejaVuSans-30" x="159.033203"/>
      </g>
     </g>
    </g>
    <g id="text_8">
     <!-- $t$  $[s]$ -->
     <g transform="translate(190.910084 269.397031)scale(0.13 -0.13)">
      <defs>
       <path id="DejaVuSans-Oblique-74" d="M 2706 3500 
L 2619 3053 
L 1472 3053 
L 1100 1153 
Q 1081 1047 1072 975 
Q 1063 903 1063 863 
Q 1063 663 1183 572 
Q 1303 481 1569 481 
L 2150 481 
L 2053 0 
L 1503 0 
Q 991 0 739 200 
Q 488 400 488 806 
Q 488 878 497 964 
Q 506 1050 525 1153 
L 897 3053 
L 409 3053 
L 500 3500 
L 978 3500 
L 1172 4494 
L 1747 4494 
L 1556 3500 
L 2706 3500 
z
" transform="scale(0.015625)"/>
       <path id="DejaVuSans-20" transform="scale(0.015625)"/>
       <path id="DejaVuSans-5b" d="M 550 4863 
L 1875 4863 
L 1875 4416 
L 1125 4416 
L 1125 -397 
L 1875 -397 
L 1875 -844 
L 550 -844 
L 550 4863 
z
" transform="scale(0.015625)"/>
       <path id="DejaVuSans-Oblique-73" d="M 3200 3397 
L 3091 2853 
Q 2863 2978 2609 3040 
Q 2356 3103 2088 3103 
Q 1634 3103 1373 2948 
Q 1113 2794 1113 2528 
Q 1113 2219 1719 2053 
Q 1766 2041 1788 2034 
L 1972 1978 
Q 2547 1819 2739 1644 
Q 2931 1469 2931 1166 
Q 2931 609 2489 259 
Q 2047 -91 1331 -91 
Q 1053 -91 747 -37 
Q 441 16 72 128 
L 184 722 
Q 500 559 806 475 
Q 1113 391 1394 391 
Q 1816 391 2080 572 
Q 2344 753 2344 1031 
Q 2344 1331 1650 1516 
L 1591 1531 
L 1394 1581 
Q 956 1697 753 1886 
Q 550 2075 550 2369 
Q 550 2928 970 3256 
Q 1391 3584 2113 3584 
Q 2397 3584 2667 3537 
Q 2938 3491 3200 3397 
z
" transform="scale(0.015625)"/>
       <path id="DejaVuSans-5d" d="M 1947 4863 
L 1947 -844 
L 622 -844 
L 622 -397 
L 1369 -397 
L 1369 4416 
L 622 4416 
L 622 4863 
L 1947 4863 
z
" transform="scale(0.015625)"/>
      </defs>
      <use xlink:href="#DejaVuSans-Oblique-74" transform="translate(0 0.015625)"/>
      <use xlink:href="#DejaVuSans-20" transform="translate(39.208984 0.015625)"/>
      <use xlink:href="#DejaVuSans-20" transform="translate(70.996094 0.015625)"/>
      <use xlink:href="#DejaVuSans-5b" transform="translate(102.783203 0.015625)"/>
      <use xlink:href="#DejaVuSans-Oblique-73" transform="translate(141.796875 0.015625)"/>
      <use xlink:href="#DejaVuSans-5d" transform="translate(193.896484 0.015625)"/>
     </g>
    </g>
   </g>
   <g id="matplotlib.axis_2">
    <g id="ytick_1">
     <g id="line2d_15">
      <path d="M 59.8025 223.180704 
L 352.307669 223.180704 
" clip-path="url(#p60e999ccb0)" style="fill: none; stroke-dasharray: 0.8,1.32; stroke-dashoffset: 0; stroke: #b0b0b0; stroke-width: 0.8"/>
     </g>
     <g id="line2d_16">
      <defs>
       <path id="meee37ba448" d="M 0 0 
L -3.5 0 
" style="stroke: #000000; stroke-width: 0.8"/>
      </defs>
      <g>
       <use xlink:href="#meee37ba448" x="59.8025" y="223.180704" style="stroke: #000000; stroke-width: 0.8"/>
      </g>
     </g>
     <g id="text_9">
      <!-- 0.0 -->
      <g transform="translate(32.128438 228.119689)scale(0.13 -0.13)">
       <use xlink:href="#DejaVuSans-30"/>
       <use xlink:href="#DejaVuSans-2e" x="63.623047"/>
       <use xlink:href="#DejaVuSans-30" x="95.410156"/>
      </g>
     </g>
    </g>
    <g id="ytick_2">
     <g id="line2d_17">
      <path d="M 59.8025 195.190054 
L 352.307669 195.190054 
" clip-path="url(#p60e999ccb0)" style="fill: none; stroke-dasharray: 0.8,1.32; stroke-dashoffset: 0; stroke: #b0b0b0; stroke-width: 0.8"/>
     </g>
     <g id="line2d_18">
      <g>
       <use xlink:href="#meee37ba448" x="59.8025" y="195.190054" style="stroke: #000000; stroke-width: 0.8"/>
      </g>
     </g>
     <g id="text_10">
      <!-- 0.5 -->
      <g transform="translate(32.128438 200.129038)scale(0.13 -0.13)">
       <use xlink:href="#DejaVuSans-30"/>
       <use xlink:href="#DejaVuSans-2e" x="63.623047"/>
       <use xlink:href="#DejaVuSans-35" x="95.410156"/>
      </g>
     </g>
    </g>
    <g id="ytick_3">
     <g id="line2d_19">
      <path d="M 59.8025 167.199404 
L 352.307669 167.199404 
" clip-path="url(#p60e999ccb0)" style="fill: none; stroke-dasharray: 0.8,1.32; stroke-dashoffset: 0; stroke: #b0b0b0; stroke-width: 0.8"/>
     </g>
     <g id="line2d_20">
      <g>
       <use xlink:href="#meee37ba448" x="59.8025" y="167.199404" style="stroke: #000000; stroke-width: 0.8"/>
      </g>
     </g>
     <g id="text_11">
      <!-- 1.0 -->
      <g transform="translate(32.128438 172.138388)scale(0.13 -0.13)">
       <use xlink:href="#DejaVuSans-31"/>
       <use xlink:href="#DejaVuSans-2e" x="63.623047"/>
       <use xlink:href="#DejaVuSans-30" x="95.410156"/>
      </g>
     </g>
    </g>
    <g id="ytick_4">
     <g id="line2d_21">
      <path d="M 59.8025 139.208753 
L 352.307669 139.208753 
" clip-path="url(#p60e999ccb0)" style="fill: none; stroke-dasharray: 0.8,1.32; stroke-dashoffset: 0; stroke: #b0b0b0; stroke-width: 0.8"/>
     </g>
     <g id="line2d_22">
      <g>
       <use xlink:href="#meee37ba448" x="59.8025" y="139.208753" style="stroke: #000000; stroke-width: 0.8"/>
      </g>
     </g>
     <g id="text_12">
      <!-- 1.5 -->
      <g transform="translate(32.128438 144.147738)scale(0.13 -0.13)">
       <use xlink:href="#DejaVuSans-31"/>
       <use xlink:href="#DejaVuSans-2e" x="63.623047"/>
       <use xlink:href="#DejaVuSans-35" x="95.410156"/>
      </g>
     </g>
    </g>
    <g id="ytick_5">
     <g id="line2d_23">
      <path d="M 59.8025 111.218103 
L 352.307669 111.218103 
" clip-path="url(#p60e999ccb0)" style="fill: none; stroke-dasharray: 0.8,1.32; stroke-dashoffset: 0; stroke: #b0b0b0; stroke-width: 0.8"/>
     </g>
     <g id="line2d_24">
      <g>
       <use xlink:href="#meee37ba448" x="59.8025" y="111.218103" style="stroke: #000000; stroke-width: 0.8"/>
      </g>
     </g>
     <g id="text_13">
      <!-- 2.0 -->
      <g transform="translate(32.128438 116.157087)scale(0.13 -0.13)">
       <use xlink:href="#DejaVuSans-32"/>
       <use xlink:href="#DejaVuSans-2e" x="63.623047"/>
       <use xlink:href="#DejaVuSans-30" x="95.410156"/>
      </g>
     </g>
    </g>
    <g id="ytick_6">
     <g id="line2d_25">
      <path d="M 59.8025 83.227453 
L 352.307669 83.227453 
" clip-path="url(#p60e999ccb0)" style="fill: none; stroke-dasharray: 0.8,1.32; stroke-dashoffset: 0; stroke: #b0b0b0; stroke-width: 0.8"/>
     </g>
     <g id="line2d_26">
      <g>
       <use xlink:href="#meee37ba448" x="59.8025" y="83.227453" style="stroke: #000000; stroke-width: 0.8"/>
      </g>
     </g>
     <g id="text_14">
      <!-- 2.5 -->
      <g transform="translate(32.128438 88.166437)scale(0.13 -0.13)">
       <use xlink:href="#DejaVuSans-32"/>
       <use xlink:href="#DejaVuSans-2e" x="63.623047"/>
       <use xlink:href="#DejaVuSans-35" x="95.410156"/>
      </g>
     </g>
    </g>
    <g id="ytick_7">
     <g id="line2d_27">
      <path d="M 59.8025 55.236802 
L 352.307669 55.236802 
" clip-path="url(#p60e999ccb0)" style="fill: none; stroke-dasharray: 0.8,1.32; stroke-dashoffset: 0; stroke: #b0b0b0; stroke-width: 0.8"/>
     </g>
     <g id="line2d_28">
      <g>
       <use xlink:href="#meee37ba448" x="59.8025" y="55.236802" style="stroke: #000000; stroke-width: 0.8"/>
      </g>
     </g>
     <g id="text_15">
      <!-- 3.0 -->
      <g transform="translate(32.128438 60.175787)scale(0.13 -0.13)">
       <defs>
        <path id="DejaVuSans-33" d="M 2597 2516 
Q 3050 2419 3304 2112 
Q 3559 1806 3559 1356 
Q 3559 666 3084 287 
Q 2609 -91 1734 -91 
Q 1441 -91 1130 -33 
Q 819 25 488 141 
L 488 750 
Q 750 597 1062 519 
Q 1375 441 1716 441 
Q 2309 441 2620 675 
Q 2931 909 2931 1356 
Q 2931 1769 2642 2001 
Q 2353 2234 1838 2234 
L 1294 2234 
L 1294 2753 
L 1863 2753 
Q 2328 2753 2575 2939 
Q 2822 3125 2822 3475 
Q 2822 3834 2567 4026 
Q 2313 4219 1838 4219 
Q 1578 4219 1281 4162 
Q 984 4106 628 3988 
L 628 4550 
Q 988 4650 1302 4700 
Q 1616 4750 1894 4750 
Q 2613 4750 3031 4423 
Q 3450 4097 3450 3541 
Q 3450 3153 3228 2886 
Q 3006 2619 2597 2516 
z
" transform="scale(0.015625)"/>
       </defs>
       <use xlink:href="#DejaVuSans-33"/>
       <use xlink:href="#DejaVuSans-2e" x="63.623047"/>
       <use xlink:href="#DejaVuSans-30" x="95.410156"/>
      </g>
     </g>
    </g>
    <g id="text_16">
     <!-- $\theta$  $[rad]$ -->
     <g transform="translate(25.424844 163.19375)rotate(-90)scale(0.13 -0.13)">
      <defs>
       <path id="DejaVuSans-Oblique-3b8" d="M 2913 2219 
L 925 2219 
Q 791 1284 928 888 
Q 1100 400 1566 400 
Q 2034 400 2391 891 
Q 2703 1322 2913 2219 
z
M 3009 2750 
Q 3094 3638 2984 3950 
Q 2813 4444 2353 4444 
Q 1875 4444 1525 3956 
Q 1250 3563 1034 2750 
L 3009 2750 
z
M 2444 4913 
Q 3194 4913 3494 4250 
Q 3794 3591 3566 2422 
Q 3341 1256 2781 594 
Q 2225 -72 1475 -72 
Q 722 -72 425 594 
Q 128 1256 353 2422 
Q 581 3591 1134 4250 
Q 1691 4913 2444 4913 
z
" transform="scale(0.015625)"/>
       <path id="DejaVuSans-Oblique-72" d="M 2853 2969 
Q 2766 3016 2653 3041 
Q 2541 3066 2413 3066 
Q 1953 3066 1609 2717 
Q 1266 2369 1153 1784 
L 800 0 
L 225 0 
L 909 3500 
L 1484 3500 
L 1375 2956 
Q 1603 3259 1920 3421 
Q 2238 3584 2597 3584 
Q 2691 3584 2781 3573 
Q 2872 3563 2963 3538 
L 2853 2969 
z
" transform="scale(0.015625)"/>
       <path id="DejaVuSans-Oblique-61" d="M 3438 1997 
L 3047 0 
L 2472 0 
L 2578 531 
Q 2325 219 2001 64 
Q 1678 -91 1281 -91 
Q 834 -91 548 182 
Q 263 456 263 884 
Q 263 1497 752 1853 
Q 1241 2209 2100 2209 
L 2900 2209 
L 2931 2363 
Q 2938 2388 2941 2417 
Q 2944 2447 2944 2509 
Q 2944 2788 2717 2942 
Q 2491 3097 2081 3097 
Q 1800 3097 1504 3025 
Q 1209 2953 897 2809 
L 997 3341 
Q 1322 3463 1633 3523 
Q 1944 3584 2234 3584 
Q 2853 3584 3176 3315 
Q 3500 3047 3500 2534 
Q 3500 2431 3484 2292 
Q 3469 2153 3438 1997 
z
M 2816 1759 
L 2241 1759 
Q 1534 1759 1195 1570 
Q 856 1381 856 984 
Q 856 709 1029 553 
Q 1203 397 1509 397 
Q 1978 397 2328 733 
Q 2678 1069 2791 1631 
L 2816 1759 
z
" transform="scale(0.015625)"/>
       <path id="DejaVuSans-Oblique-64" d="M 2675 525 
Q 2444 222 2128 65 
Q 1813 -91 1428 -91 
Q 903 -91 598 267 
Q 294 625 294 1247 
Q 294 1766 478 2236 
Q 663 2706 1013 3078 
Q 1244 3325 1534 3454 
Q 1825 3584 2144 3584 
Q 2481 3584 2739 3421 
Q 2997 3259 3138 2956 
L 3513 4863 
L 4091 4863 
L 3144 0 
L 2566 0 
L 2675 525 
z
M 891 1350 
Q 891 897 1095 644 
Q 1300 391 1663 391 
Q 1931 391 2161 520 
Q 2391 650 2566 903 
Q 2750 1166 2856 1509 
Q 2963 1853 2963 2188 
Q 2963 2622 2758 2865 
Q 2553 3109 2194 3109 
Q 1922 3109 1687 2981 
Q 1453 2853 1288 2613 
Q 1106 2353 998 2009 
Q 891 1666 891 1350 
z
" transform="scale(0.015625)"/>
      </defs>
      <use xlink:href="#DejaVuSans-Oblique-3b8" transform="translate(0 0.234375)"/>
      <use xlink:href="#DejaVuSans-20" transform="translate(61.181641 0.234375)"/>
      <use xlink:href="#DejaVuSans-20" transform="translate(92.96875 0.234375)"/>
      <use xlink:href="#DejaVuSans-5b" transform="translate(124.755859 0.234375)"/>
      <use xlink:href="#DejaVuSans-Oblique-72" transform="translate(163.769531 0.234375)"/>
      <use xlink:href="#DejaVuSans-Oblique-61" transform="translate(204.882812 0.234375)"/>
      <use xlink:href="#DejaVuSans-Oblique-64" transform="translate(266.162109 0.234375)"/>
      <use xlink:href="#DejaVuSans-5d" transform="translate(329.638672 0.234375)"/>
     </g>
    </g>
   </g>
   <g id="line2d_29">
    <path d="M 73.098189 227.143977 
L 74.882846 227.009092 
L 76.667502 226.613084 
L 78.452158 225.968992 
L 80.236815 225.0923 
L 82.021471 223.989462 
L 83.806127 222.664885 
L 85.590784 221.123613 
L 87.37544 219.361177 
L 89.160096 217.36214 
L 90.944753 215.161369 
L 92.729409 212.716968 
L 94.514065 210.028595 
L 96.298721 207.094328 
L 98.083378 203.913863 
L 101.65269 196.863736 
L 105.222003 188.999669 
L 108.791316 180.574189 
L 119.499253 154.902914 
L 123.068566 147.113779 
L 126.637879 139.942488 
L 128.422535 136.656829 
L 130.207191 133.60863 
L 131.991848 130.82599 
L 133.776504 128.318043 
L 135.56116 126.041724 
L 137.345817 123.996505 
L 139.130473 122.185763 
L 140.915129 120.612875 
L 142.699785 119.281218 
L 144.484442 118.191145 
L 146.269098 117.315983 
L 148.053754 116.639932 
L 149.838411 116.152048 
L 151.623067 115.841385 
L 153.407723 115.695959 
L 155.19238 115.703101 
L 156.977036 115.850998 
L 158.761692 116.127841 
L 162.331005 117.026666 
L 165.900317 118.325482 
L 167.684974 118.96964 
L 173.038943 121.810517 
L 180.177568 125.972265 
L 194.454818 134.500852 
L 198.024131 136.420405 
L 201.593444 138.165037 
L 205.162756 139.733441 
L 208.732069 141.095573 
L 212.301381 142.233552 
L 215.870694 143.136616 
L 219.440007 143.806103 
L 223.009319 144.251034 
L 226.578632 144.482645 
L 230.147944 144.521748 
L 233.717257 144.387504 
L 239.071226 143.924497 
L 244.425195 143.231621 
L 255.133133 141.524147 
L 265.841071 139.88448 
L 272.979696 139.014992 
L 280.118321 138.381858 
L 287.256946 138.003063 
L 294.395572 137.871374 
L 303.318853 137.968918 
L 314.026791 138.328607 
L 339.011979 139.32388 
L 339.011979 139.32388 
" clip-path="url(#p60e999ccb0)" style="fill: none; stroke: #1911df; stroke-width: 1.5; stroke-linecap: square"/>
   </g>
   <g id="line2d_30">
    <path d="M 73.098189 214.581802 
L 74.882846 214.382572 
L 76.667502 213.801193 
L 78.452158 212.861112 
L 80.236815 211.576436 
L 82.021471 209.960908 
L 83.806127 208.023044 
L 85.590784 205.776671 
L 87.37544 203.217895 
L 89.160096 200.373536 
L 90.944753 197.259278 
L 94.514065 190.310786 
L 98.083378 182.634875 
L 103.437347 170.561873 
L 108.791316 158.489043 
L 112.360628 150.738641 
L 115.929941 143.841247 
L 119.499253 137.524205 
L 123.068566 131.945177 
L 124.853222 129.483906 
L 126.637879 127.269792 
L 128.422535 125.322798 
L 130.207191 123.617229 
L 131.991848 122.131347 
L 133.776504 120.859965 
L 135.56116 119.797897 
L 137.345817 118.936913 
L 139.130473 118.261025 
L 140.915129 117.759797 
L 142.699785 117.423219 
L 144.484442 117.241296 
L 146.269098 117.204502 
L 148.053754 117.303308 
L 149.838411 117.528036 
L 153.407723 118.316587 
L 156.977036 119.4929 
L 160.546349 120.983746 
L 164.115661 122.694706 
L 171.254286 126.644139 
L 185.531537 134.72263 
L 190.885506 137.389816 
L 194.454818 138.967217 
L 198.024131 140.355062 
L 201.593444 141.535681 
L 205.162756 142.501361 
L 208.732069 143.236862 
L 212.301381 143.778421 
L 215.870694 144.10723 
L 219.440007 144.239924 
L 223.009319 144.200162 
L 228.363288 143.862527 
L 233.717257 143.281101 
L 240.855882 142.321832 
L 256.917789 139.966549 
L 265.841071 138.933607 
L 272.979696 138.354532 
L 280.118321 138.001497 
L 287.256946 137.890096 
L 296.180228 138.000334 
L 308.672822 138.434965 
L 333.65801 139.387991 
L 339.011979 139.516005 
L 339.011979 139.516005 
" clip-path="url(#p60e999ccb0)" style="fill: none; stroke: #1911df; stroke-width: 1.5; stroke-linecap: square"/>
   </g>
   <g id="line2d_31">
    <path d="M 73.098189 202.019627 
L 74.882846 201.783865 
L 76.667502 201.100035 
L 78.452158 199.991834 
L 80.236815 198.488734 
L 82.021471 196.623705 
L 83.806127 194.439249 
L 85.590784 191.993701 
L 87.37544 189.288044 
L 90.944753 183.163142 
L 94.514065 176.470296 
L 107.006659 151.804608 
L 110.575972 145.397698 
L 114.145285 139.613399 
L 117.714597 134.500726 
L 119.499253 132.266685 
L 121.28391 130.217433 
L 123.068566 128.359411 
L 124.853222 126.691743 
L 126.637879 125.210256 
L 128.422535 123.916777 
L 130.207191 122.813131 
L 131.991848 121.901146 
L 133.776504 121.182108 
L 135.56116 120.637575 
L 137.345817 120.249377 
L 139.130473 120.006091 
L 140.915129 119.896748 
L 142.699785 119.913959 
L 146.269098 120.292635 
L 149.838411 121.071854 
L 153.407723 122.187431 
L 156.977036 123.573481 
L 160.546349 125.164967 
L 165.900317 127.815151 
L 180.177568 135.162175 
L 185.531537 137.595017 
L 189.100849 139.033625 
L 192.670162 140.300602 
L 196.239475 141.325799 
L 199.808787 142.222172 
L 203.3781 142.901347 
L 206.947412 143.363325 
L 210.516725 143.6233 
L 214.086038 143.716052 
L 219.440007 143.579882 
L 224.793976 143.182216 
L 231.932601 142.384711 
L 258.702445 139.05685 
L 265.841071 138.511214 
L 272.979696 138.194441 
L 280.118321 138.084081 
L 289.041603 138.167142 
L 301.534197 138.529685 
L 328.304041 139.406459 
L 339.011979 139.580164 
L 339.011979 139.580164 
" clip-path="url(#p60e999ccb0)" style="fill: none; stroke: #1911df; stroke-width: 1.5; stroke-linecap: square"/>
   </g>
   <g id="line2d_32">
    <path d="M 73.098189 189.457451 
L 74.882846 189.244396 
L 76.667502 188.623373 
L 78.452158 187.625178 
L 80.236815 186.287162 
L 82.021471 184.638393 
L 83.806127 182.716732 
L 85.590784 180.549385 
L 89.160096 175.63245 
L 92.729409 170.151314 
L 105.222003 150.043571 
L 108.791316 144.812222 
L 112.360628 140.075403 
L 115.929941 135.881842 
L 119.499253 132.313933 
L 121.28391 130.765141 
L 123.068566 129.373393 
L 124.853222 128.138738 
L 126.637879 127.061175 
L 128.422535 126.14018 
L 130.207191 125.362068 
L 131.991848 124.720797 
L 133.776504 124.216369 
L 135.56116 123.848783 
L 139.130473 123.469919 
L 142.699785 123.528241 
L 146.269098 123.978772 
L 149.838411 124.747962 
L 153.407723 125.773397 
L 158.761692 127.640555 
L 164.115661 129.795172 
L 183.746881 137.861402 
L 189.100849 139.656323 
L 192.670162 140.675283 
L 196.239475 141.508517 
L 199.808787 142.184648 
L 203.3781 142.681584 
L 206.947412 143.012739 
L 212.301381 143.210252 
L 217.65535 143.099341 
L 223.009319 142.762824 
L 230.147944 142.090643 
L 242.640539 140.640703 
L 253.348476 139.471108 
L 260.487102 138.88853 
L 267.625727 138.522637 
L 276.549008 138.318125 
L 285.47229 138.307733 
L 297.964884 138.555984 
L 339.011979 139.538132 
L 339.011979 139.538132 
" clip-path="url(#p60e999ccb0)" style="fill: none; stroke: #1911df; stroke-width: 1.5; stroke-linecap: square"/>
   </g>
   <g id="line2d_33">
    <path d="M 73.098189 176.895276 
L 74.882846 176.733837 
L 76.667502 176.260387 
L 78.452158 175.499261 
L 80.236815 174.480759 
L 82.021471 173.225568 
L 83.806127 171.764314 
L 85.590784 170.117909 
L 89.160096 166.379516 
L 92.729409 162.216561 
L 105.222003 147.026702 
L 108.791316 143.113488 
L 112.360628 139.589429 
L 115.929941 136.510918 
L 119.499253 133.906102 
L 123.068566 131.790237 
L 126.637879 130.145675 
L 130.207191 128.96633 
L 133.776504 128.225324 
L 137.345817 127.873815 
L 140.915129 127.866288 
L 144.484442 128.15777 
L 148.053754 128.702072 
L 151.623067 129.453215 
L 156.977036 130.868344 
L 164.115661 133.08188 
L 174.823599 136.480474 
L 180.177568 138.014932 
L 185.531537 139.339713 
L 190.885506 140.408332 
L 196.239475 141.206611 
L 201.593444 141.734995 
L 206.947412 142.007911 
L 212.301381 142.040236 
L 219.440007 141.798748 
L 228.363288 141.196277 
L 253.348476 139.262003 
L 262.271758 138.823383 
L 271.19504 138.608726 
L 281.902977 138.585137 
L 296.180228 138.8074 
L 330.088698 139.437877 
L 339.011979 139.496259 
L 339.011979 139.496259 
" clip-path="url(#p60e999ccb0)" style="fill: none; stroke: #1911df; stroke-width: 1.5; stroke-linecap: square"/>
   </g>
   <g id="line2d_34">
    <path d="M 73.098189 164.333101 
L 74.882846 164.2235 
L 76.667502 163.906834 
L 78.452158 163.394854 
L 80.236815 162.707013 
L 82.021471 161.861886 
L 85.590784 159.764098 
L 89.160096 157.250197 
L 94.514065 153.007078 
L 103.437347 145.726713 
L 107.006659 143.011733 
L 110.575972 140.537364 
L 114.145285 138.360612 
L 117.714597 136.489778 
L 121.28391 134.953261 
L 124.853222 133.739949 
L 128.422535 132.816566 
L 131.991848 132.253897 
L 135.56116 131.940611 
L 139.130473 131.862169 
L 142.699785 131.995076 
L 146.269098 132.3065 
L 151.623067 133.048849 
L 158.761692 134.346051 
L 181.962224 138.978523 
L 187.316193 139.769113 
L 194.454818 140.575522 
L 199.808787 140.971322 
L 205.162756 141.179621 
L 212.301381 141.199477 
L 219.440007 140.996472 
L 230.147944 140.445978 
L 251.56382 139.274259 
L 262.271758 138.928904 
L 274.764352 138.791658 
L 289.041603 138.88379 
L 339.011979 139.442554 
L 339.011979 139.442554 
" clip-path="url(#p60e999ccb0)" style="fill: none; stroke: #1911df; stroke-width: 1.5; stroke-linecap: square"/>
   </g>
   <g id="line2d_35">
    <path d="M 73.098189 151.770925 
L 76.667502 151.562431 
L 80.236815 150.97773 
L 83.806127 150.086507 
L 87.37544 148.960003 
L 92.729409 146.978665 
L 107.006659 141.431135 
L 112.360628 139.664102 
L 115.929941 138.646939 
L 121.28391 137.405791 
L 126.637879 136.492844 
L 130.207191 136.080264 
L 135.56116 135.757628 
L 140.915129 135.723508 
L 146.269098 135.91913 
L 153.407723 136.440834 
L 164.115661 137.525706 
L 178.392912 138.984104 
L 187.316193 139.660948 
L 194.454818 140.013252 
L 203.3781 140.217833 
L 214.086038 140.186486 
L 228.363288 139.866076 
L 255.133133 139.212726 
L 271.19504 139.074154 
L 292.610915 139.145436 
L 339.011979 139.372168 
L 339.011979 139.372168 
" clip-path="url(#p60e999ccb0)" style="fill: none; stroke: #1911df; stroke-width: 1.5; stroke-linecap: square"/>
   </g>
   <g id="line2d_36">
    <path d="M 73.098189 139.20875 
L 339.011979 139.310175 
L 339.011979 139.310175 
" clip-path="url(#p60e999ccb0)" style="fill: none; stroke: #1911df; stroke-width: 1.5; stroke-linecap: square"/>
   </g>
   <g id="line2d_37">
    <path d="M 73.098189 126.646575 
L 76.667502 126.811881 
L 80.236815 127.275372 
L 83.806127 127.987688 
L 87.37544 128.8999 
L 92.729409 130.537604 
L 101.65269 133.635318 
L 110.575972 136.690209 
L 115.929941 138.300922 
L 121.28391 139.682625 
L 126.637879 140.789979 
L 131.991848 141.594108 
L 137.345817 142.108148 
L 142.699785 142.354004 
L 148.053754 142.345641 
L 153.407723 142.107367 
L 160.546349 141.57987 
L 190.885506 138.997405 
L 199.808787 138.590957 
L 208.732069 138.459138 
L 219.440007 138.538965 
L 237.28657 138.951109 
L 258.702445 139.408455 
L 274.764352 139.535604 
L 296.180228 139.465894 
L 339.011979 139.254083 
L 339.011979 139.254083 
" clip-path="url(#p60e999ccb0)" style="fill: none; stroke: #1911df; stroke-width: 1.5; stroke-linecap: square"/>
   </g>
   <g id="line2d_38">
    <path d="M 73.098189 114.084399 
L 74.882846 114.160897 
L 76.667502 114.380723 
L 78.452158 114.732883 
L 82.021471 115.75617 
L 85.590784 117.161805 
L 89.160096 118.867078 
L 92.729409 120.810871 
L 98.083378 124.028987 
L 112.360628 133.06797 
L 115.929941 135.159062 
L 121.28391 137.974003 
L 124.853222 139.593578 
L 128.422535 141.00121 
L 131.991848 142.183413 
L 135.56116 143.13248 
L 139.130473 143.849001 
L 142.699785 144.354803 
L 146.269098 144.642675 
L 149.838411 144.720889 
L 153.407723 144.616969 
L 158.761692 144.182542 
L 164.115661 143.499346 
L 173.038943 142.064246 
L 185.531537 140.020783 
L 192.670162 139.081653 
L 199.808787 138.40156 
L 206.947412 137.979958 
L 214.086038 137.816055 
L 223.009319 137.886686 
L 233.717257 138.241506 
L 265.841071 139.495018 
L 278.333665 139.680668 
L 292.610915 139.671177 
L 322.950072 139.356899 
L 339.011979 139.237735 
L 339.011979 139.237735 
" clip-path="url(#p60e999ccb0)" style="fill: none; stroke: #1911df; stroke-width: 1.5; stroke-linecap: square"/>
   </g>
   <g id="line2d_39">
    <path d="M 73.098189 101.522224 
L 74.882846 101.634114 
L 76.667502 101.955292 
L 78.452158 102.470425 
L 80.236815 103.163719 
L 82.021471 104.018228 
L 85.590784 106.14299 
L 89.160096 108.726156 
L 92.729409 111.652151 
L 98.083378 116.433148 
L 112.360628 129.683777 
L 117.714597 134.238808 
L 121.28391 136.973141 
L 124.853222 139.393405 
L 128.422535 141.505235 
L 131.991848 143.281135 
L 135.56116 144.689972 
L 139.130473 145.747756 
L 142.699785 146.472709 
L 146.269098 146.866865 
L 149.838411 146.946328 
L 153.407723 146.77249 
L 156.977036 146.384412 
L 162.331005 145.485709 
L 167.684974 144.33744 
L 187.316193 139.829501 
L 192.670162 138.889206 
L 198.024131 138.151143 
L 203.3781 137.6361 
L 208.732069 137.321581 
L 214.086038 137.195445 
L 221.224663 137.271662 
L 230.147944 137.636525 
L 246.209851 138.598963 
L 260.487102 139.353924 
L 272.979696 139.752204 
L 283.687634 139.868636 
L 297.964884 139.769322 
L 339.011979 139.202562 
L 339.011979 139.202562 
" clip-path="url(#p60e999ccb0)" style="fill: none; stroke: #1911df; stroke-width: 1.5; stroke-linecap: square"/>
   </g>
   <g id="line2d_40">
    <path d="M 73.098189 88.960049 
L 74.882846 89.110935 
L 76.667502 89.547278 
L 78.452158 90.24677 
L 80.236815 91.187887 
L 82.021471 92.348787 
L 83.806127 93.706499 
L 85.590784 95.238592 
L 89.160096 98.73775 
L 92.729409 102.683977 
L 98.083378 109.098933 
L 112.360628 126.480862 
L 115.929941 130.459134 
L 119.499253 134.138896 
L 123.068566 137.501119 
L 126.637879 140.471759 
L 130.207191 143.035851 
L 133.776504 145.155368 
L 137.345817 146.823299 
L 140.915129 148.053307 
L 144.484442 148.842876 
L 148.053754 149.237079 
L 151.623067 149.267227 
L 155.19238 148.957478 
L 158.761692 148.33229 
L 162.331005 147.477486 
L 167.684974 145.934034 
L 185.531537 140.419259 
L 190.885506 139.09095 
L 196.239475 138.01879 
L 201.593444 137.220825 
L 206.947412 136.699008 
L 212.301381 136.435885 
L 217.65535 136.407662 
L 224.793976 136.660634 
L 233.717257 137.276119 
L 260.487102 139.403746 
L 269.410383 139.814064 
L 278.333665 140.015959 
L 289.041603 140.027587 
L 303.318853 139.790822 
L 333.65801 139.202196 
L 339.011979 139.154221 
L 339.011979 139.154221 
" clip-path="url(#p60e999ccb0)" style="fill: none; stroke: #1911df; stroke-width: 1.5; stroke-linecap: square"/>
   </g>
   <g id="line2d_41">
    <path d="M 73.098189 76.397873 
L 74.882846 76.583867 
L 76.667502 77.121624 
L 78.452158 77.965155 
L 80.236815 79.117067 
L 82.021471 80.521618 
L 83.806127 82.213895 
L 85.590784 84.062388 
L 89.160096 88.394559 
L 92.729409 93.344686 
L 96.298721 98.716341 
L 112.360628 123.895503 
L 115.929941 128.971322 
L 119.499253 133.633634 
L 123.068566 137.835036 
L 126.637879 141.523507 
L 130.207191 144.632783 
L 131.991848 145.979578 
L 133.776504 147.172928 
L 135.56116 148.207508 
L 139.130473 149.849033 
L 140.915129 150.493238 
L 142.699785 151.008934 
L 144.484442 151.398567 
L 146.269098 151.663521 
L 148.053754 151.795104 
L 151.623067 151.712596 
L 155.19238 151.231446 
L 158.761692 150.422788 
L 162.331005 149.358417 
L 167.684974 147.429443 
L 185.531537 140.534286 
L 190.885506 138.891104 
L 196.239475 137.580208 
L 199.808787 136.908636 
L 203.3781 136.394228 
L 206.947412 136.032458 
L 212.301381 135.766014 
L 217.65535 135.77508 
L 223.009319 136.001624 
L 230.147944 136.545464 
L 240.855882 137.606017 
L 255.133133 139.016778 
L 264.056414 139.674409 
L 272.979696 140.083894 
L 281.902977 140.243667 
L 292.610915 140.170156 
L 308.672822 139.770119 
L 331.873354 139.206613 
L 339.011979 139.11569 
L 339.011979 139.11569 
" clip-path="url(#p60e999ccb0)" style="fill: none; stroke: #1911df; stroke-width: 1.5; stroke-linecap: square"/>
   </g>
   <g id="line2d_42">
    <path d="M 73.098189 63.835698 
L 74.882846 64.044873 
L 76.667502 64.652409 
L 78.452158 65.631129 
L 80.236815 66.953726 
L 82.021471 68.597115 
L 83.806127 70.535675 
L 85.590784 72.738112 
L 87.37544 75.173438 
L 90.944753 80.620659 
L 94.514065 86.677031 
L 99.868034 96.467747 
L 107.006659 109.864918 
L 108.791316 112.804093 
L 112.360628 119.377548 
L 115.929941 125.410074 
L 119.499253 130.90479 
L 123.068566 135.878061 
L 126.637879 140.293055 
L 130.207191 144.099547 
L 131.991848 145.763222 
L 133.776504 147.264764 
L 135.56116 148.604173 
L 137.345817 149.78145 
L 139.130473 150.796682 
L 140.915129 151.652861 
L 142.699785 152.351461 
L 144.484442 152.89248 
L 146.269098 153.277186 
L 148.053754 153.520159 
L 149.838411 153.625543 
L 151.623067 153.595 
L 153.407723 153.443353 
L 156.977036 152.81198 
L 160.546349 151.815302 
L 165.900317 149.89406 
L 169.46963 148.39569 
L 185.531537 141.305131 
L 190.885506 139.300488 
L 194.454818 138.133314 
L 198.024131 137.143801 
L 201.593444 136.310293 
L 205.162756 135.67554 
L 208.732069 135.260015 
L 212.301381 135.021028 
L 217.65535 134.942709 
L 223.009319 135.147425 
L 228.363288 135.568969 
L 235.501913 136.348802 
L 258.702445 139.147392 
L 265.841071 139.753007 
L 272.979696 140.165425 
L 280.118321 140.385956 
L 289.041603 140.421102 
L 299.74954 140.205273 
L 339.011979 139.100648 
L 339.011979 139.100648 
" clip-path="url(#p60e999ccb0)" style="fill: none; stroke: #1911df; stroke-width: 1.5; stroke-linecap: square"/>
   </g>
   <g id="line2d_43">
    <path d="M 73.098189 51.273523 
L 74.882846 51.498852 
L 76.667502 52.153612 
L 78.452158 53.206209 
L 80.236815 54.628219 
L 82.021471 56.391476 
L 83.806127 58.469135 
L 85.590784 60.83509 
L 87.37544 63.46361 
L 89.160096 66.328423 
L 92.729409 72.662535 
L 96.298721 79.628843 
L 101.65269 90.819498 
L 110.575972 109.825169 
L 114.145285 117.078793 
L 117.714597 123.922416 
L 119.499253 126.785088 
L 123.068566 133.066548 
L 126.637879 138.535105 
L 128.422535 140.964544 
L 130.207191 143.191992 
L 131.991848 145.232031 
L 133.776504 147.088886 
L 135.56116 148.762556 
L 137.345817 150.253041 
L 139.130473 151.560341 
L 140.915129 152.683249 
L 142.699785 153.620173 
L 144.484442 154.371106 
L 146.269098 154.936047 
L 148.053754 155.32736 
L 149.838411 155.559149 
L 151.623067 155.63143 
L 153.407723 155.548474 
L 155.19238 155.329162 
L 158.761692 154.533907 
L 162.331005 153.336438 
L 165.900317 151.832856 
L 171.254286 149.217593 
L 183.746881 142.775407 
L 189.100849 140.315617 
L 192.670162 138.885292 
L 196.239475 137.64692 
L 199.808787 136.61849 
L 203.3781 135.803685 
L 206.947412 135.193676 
L 210.516725 134.787379 
L 214.086038 134.560513 
L 217.65535 134.502718 
L 223.009319 134.684535 
L 228.363288 135.115477 
L 235.501913 135.927598 
L 262.271758 139.35966 
L 269.410383 139.975251 
L 276.549008 140.374771 
L 283.687634 140.563319 
L 292.610915 140.539528 
L 303.318853 140.256416 
L 339.011979 139.097989 
L 339.011979 139.097989 
" clip-path="url(#p60e999ccb0)" style="fill: none; stroke: #1911df; stroke-width: 1.5; stroke-linecap: square"/>
   </g>
   <g id="patch_3">
    <path d="M 59.8025 235.9375 
L 59.8025 42.48 
" style="fill: none; stroke: #000000; stroke-width: 0.8; stroke-linejoin: miter; stroke-linecap: square"/>
   </g>
   <g id="patch_4">
    <path d="M 352.307669 235.9375 
L 352.307669 42.48 
" style="fill: none; stroke: #000000; stroke-width: 0.8; stroke-linejoin: miter; stroke-linecap: square"/>
   </g>
   <g id="patch_5">
    <path d="M 59.8025 235.9375 
L 352.307669 235.9375 
" style="fill: none; stroke: #000000; stroke-width: 0.8; stroke-linejoin: miter; stroke-linecap: square"/>
   </g>
   <g id="patch_6">
    <path d="M 59.8025 42.48 
L 352.307669 42.48 
" style="fill: none; stroke: #000000; stroke-width: 0.8; stroke-linejoin: miter; stroke-linecap: square"/>
   </g>
   <g id="text_17">
    <g id="patch_7">
     <path d="M 244.080756 228.284719 
L 344.830756 228.284719 
Q 348.730756 228.284719 348.730756 224.384719 
L 348.730756 197.246 
Q 348.730756 193.346 344.830756 193.346 
L 244.080756 193.346 
Q 240.180756 193.346 240.180756 197.246 
L 240.180756 224.384719 
Q 240.180756 228.284719 244.080756 228.284719 
z
" style="fill: #f5deb3; opacity: 0.5; stroke: #000000; stroke-linejoin: miter"/>
    </g>
    <!-- $R=0, R_a=(0.7)$ -->
    <g transform="translate(244.080756 207.123969)scale(0.13 -0.13)">
     <defs>
      <path id="DejaVuSans-Oblique-52" d="M 1613 4147 
L 1294 2491 
L 2106 2491 
Q 2584 2491 2879 2755 
Q 3175 3019 3175 3444 
Q 3175 3784 2976 3965 
Q 2778 4147 2406 4147 
L 1613 4147 
z
M 2772 2241 
Q 2972 2194 3105 2009 
Q 3238 1825 3413 1275 
L 3809 0 
L 3144 0 
L 2778 1197 
Q 2638 1659 2453 1815 
Q 2269 1972 1888 1972 
L 1191 1972 
L 806 0 
L 172 0 
L 1081 4666 
L 2503 4666 
Q 3150 4666 3495 4373 
Q 3841 4081 3841 3531 
Q 3841 3044 3547 2687 
Q 3253 2331 2772 2241 
z
" transform="scale(0.015625)"/>
      <path id="DejaVuSans-3d" d="M 678 2906 
L 4684 2906 
L 4684 2381 
L 678 2381 
L 678 2906 
z
M 678 1631 
L 4684 1631 
L 4684 1100 
L 678 1100 
L 678 1631 
z
" transform="scale(0.015625)"/>
      <path id="DejaVuSans-2c" d="M 750 794 
L 1409 794 
L 1409 256 
L 897 -744 
L 494 -744 
L 750 256 
L 750 794 
z
" transform="scale(0.015625)"/>
      <path id="DejaVuSans-28" d="M 1984 4856 
Q 1566 4138 1362 3434 
Q 1159 2731 1159 2009 
Q 1159 1288 1364 580 
Q 1569 -128 1984 -844 
L 1484 -844 
Q 1016 -109 783 600 
Q 550 1309 550 2009 
Q 550 2706 781 3412 
Q 1013 4119 1484 4856 
L 1984 4856 
z
" transform="scale(0.015625)"/>
      <path id="DejaVuSans-29" d="M 513 4856 
L 1013 4856 
Q 1481 4119 1714 3412 
Q 1947 2706 1947 2009 
Q 1947 1309 1714 600 
Q 1481 -109 1013 -844 
L 513 -844 
Q 928 -128 1133 580 
Q 1338 1288 1338 2009 
Q 1338 2731 1133 3434 
Q 928 4138 513 4856 
z
" transform="scale(0.015625)"/>
     </defs>
     <use xlink:href="#DejaVuSans-Oblique-52" transform="translate(0 0.125)"/>
     <use xlink:href="#DejaVuSans-3d" transform="translate(88.964844 0.125)"/>
     <use xlink:href="#DejaVuSans-30" transform="translate(192.236328 0.125)"/>
     <use xlink:href="#DejaVuSans-2c" transform="translate(255.859375 0.125)"/>
     <use xlink:href="#DejaVuSans-Oblique-52" transform="translate(307.128906 0.125)"/>
     <use xlink:href="#DejaVuSans-Oblique-61" transform="translate(376.611328 -16.28125)scale(0.7)"/>
     <use xlink:href="#DejaVuSans-3d" transform="translate(441.723633 0.125)"/>
     <use xlink:href="#DejaVuSans-28" transform="translate(544.995117 0.125)"/>
     <use xlink:href="#DejaVuSans-30" transform="translate(584.008789 0.125)"/>
     <use xlink:href="#DejaVuSans-2e" transform="translate(647.631836 0.125)"/>
     <use xlink:href="#DejaVuSans-37" transform="translate(671.668945 0.125)"/>
     <use xlink:href="#DejaVuSans-29" transform="translate(735.291992 0.125)"/>
    </g>
    <!-- $x^\star=(1.5,0,0)$ -->
    <g transform="translate(244.080756 221.681125)scale(0.13 -0.13)">
     <defs>
      <path id="DejaVuSans-Oblique-78" d="M 3841 3500 
L 2234 1784 
L 3219 0 
L 2559 0 
L 1819 1388 
L 531 0 
L -166 0 
L 1556 1844 
L 641 3500 
L 1300 3500 
L 1972 2234 
L 3144 3500 
L 3841 3500 
z
" transform="scale(0.015625)"/>
      <path id="DejaVuSans-22c6" d="M 778 2391 
L 1713 2391 
L 2003 3278 
L 2297 2391 
L 3228 2391 
L 2472 1841 
L 2766 953 
L 2003 1503 
L 1244 953 
L 1534 1841 
L 778 2391 
z
" transform="scale(0.015625)"/>
     </defs>
     <use xlink:href="#DejaVuSans-Oblique-78" transform="translate(0 0.125)"/>
     <use xlink:href="#DejaVuSans-22c6" transform="translate(77.283529 38.40625)scale(0.7)"/>
     <use xlink:href="#DejaVuSans-3d" transform="translate(156.95638 0.125)"/>
     <use xlink:href="#DejaVuSans-28" transform="translate(260.227865 0.125)"/>
     <use xlink:href="#DejaVuSans-31" transform="translate(299.241536 0.125)"/>
     <use xlink:href="#DejaVuSans-2e" transform="translate(362.864583 0.125)"/>
     <use xlink:href="#DejaVuSans-35" transform="translate(394.651693 0.125)"/>
     <use xlink:href="#DejaVuSans-2c" transform="translate(458.27474 0.125)"/>
     <use xlink:href="#DejaVuSans-30" transform="translate(509.544271 0.125)"/>
     <use xlink:href="#DejaVuSans-2c" transform="translate(573.167318 0.125)"/>
     <use xlink:href="#DejaVuSans-30" transform="translate(624.436849 0.125)"/>
     <use xlink:href="#DejaVuSans-29" transform="translate(688.059896 0.125)"/>
    </g>
   </g>
   <g id="legend_1">
    <g id="patch_8">
     <path d="M 280.077669 73.99 
L 345.207669 73.99 
Q 347.807669 73.99 347.807669 71.39 
L 347.807669 53.58 
Q 347.807669 50.98 345.207669 50.98 
L 280.077669 50.98 
Q 277.477669 50.98 277.477669 53.58 
L 277.477669 71.39 
Q 277.477669 73.99 280.077669 73.99 
z
" style="fill: #4c4c4c; opacity: 0.5; stroke: #4c4c4c; stroke-linejoin: miter"/>
    </g>
    <g id="patch_9">
     <path d="M 278.077669 71.99 
L 343.207669 71.99 
Q 345.807669 71.99 345.807669 69.39 
L 345.807669 51.58 
Q 345.807669 48.98 343.207669 48.98 
L 278.077669 48.98 
Q 275.477669 48.98 275.477669 51.58 
L 275.477669 69.39 
Q 275.477669 71.99 278.077669 71.99 
z
" style="fill: #ffffff; stroke: #cccccc; stroke-linejoin: miter"/>
    </g>
    <g id="line2d_44">
     <path d="M 280.677669 59.51 
L 293.677669 59.51 
L 306.677669 59.51 
" style="fill: none; stroke: #1911df; stroke-width: 1.5; stroke-linecap: square"/>
    </g>
    <g id="text_18">
     <!-- $q(t)$ -->
     <g transform="translate(317.077669 64.06)scale(0.13 -0.13)">
      <defs>
       <path id="DejaVuSans-Oblique-71" d="M 2669 525 
Q 2438 222 2123 65 
Q 1809 -91 1428 -91 
Q 897 -91 595 267 
Q 294 625 294 1253 
Q 294 1759 480 2231 
Q 666 2703 1013 3078 
Q 1238 3322 1530 3453 
Q 1822 3584 2144 3584 
Q 2531 3584 2781 3431 
Q 3031 3278 3144 2969 
L 3244 3494 
L 3822 3494 
L 2888 -1319 
L 2309 -1319 
L 2669 525 
z
M 891 1338 
Q 891 875 1084 633 
Q 1278 391 1644 391 
Q 2188 391 2572 911 
Q 2956 1431 2956 2175 
Q 2956 2625 2757 2864 
Q 2559 3103 2188 3103 
Q 1916 3103 1684 2976 
Q 1453 2850 1281 2606 
Q 1100 2350 995 2006 
Q 891 1663 891 1338 
z
" transform="scale(0.015625)"/>
      </defs>
      <use xlink:href="#DejaVuSans-Oblique-71" transform="translate(0 0.125)"/>
      <use xlink:href="#DejaVuSans-28" transform="translate(63.476562 0.125)"/>
      <use xlink:href="#DejaVuSans-Oblique-74" transform="translate(102.490234 0.125)"/>
      <use xlink:href="#DejaVuSans-29" transform="translate(141.699219 0.125)"/>
     </g>
    </g>
   </g>
  </g>
  <g id="axes_2">
   <g id="patch_10">
    <path d="M 413.454831 235.9375 
L 705.96 235.9375 
L 705.96 42.48 
L 413.454831 42.48 
L 413.454831 235.9375 
z
" style="fill: none"/>
   </g>
   <g id="matplotlib.axis_3">
    <g id="xtick_8">
     <g id="line2d_45">
      <path d="M 426.750521 235.9375 
L 426.750521 42.48 
" clip-path="url(#pb2070e2aa2)" style="fill: none; stroke-dasharray: 0.8,1.32; stroke-dashoffset: 0; stroke: #b0b0b0; stroke-width: 0.8"/>
     </g>
     <g id="line2d_46">
      <g>
       <use xlink:href="#mfae0b7acc1" x="426.750521" y="235.9375" style="stroke: #000000; stroke-width: 0.8"/>
      </g>
     </g>
     <g id="text_19">
      <!-- 0.0 -->
      <g transform="translate(417.208646 252.055625)scale(0.12 -0.12)">
       <use xlink:href="#DejaVuSans-30"/>
       <use xlink:href="#DejaVuSans-2e" x="63.623047"/>
       <use xlink:href="#DejaVuSans-30" x="95.410156"/>
      </g>
     </g>
    </g>
    <g id="xtick_9">
     <g id="line2d_47">
      <path d="M 471.069486 235.9375 
L 471.069486 42.48 
" clip-path="url(#pb2070e2aa2)" style="fill: none; stroke-dasharray: 0.8,1.32; stroke-dashoffset: 0; stroke: #b0b0b0; stroke-width: 0.8"/>
     </g>
     <g id="line2d_48">
      <g>
       <use xlink:href="#mfae0b7acc1" x="471.069486" y="235.9375" style="stroke: #000000; stroke-width: 0.8"/>
      </g>
     </g>
     <g id="text_20">
      <!-- 2.5 -->
      <g transform="translate(461.527611 252.055625)scale(0.12 -0.12)">
       <use xlink:href="#DejaVuSans-32"/>
       <use xlink:href="#DejaVuSans-2e" x="63.623047"/>
       <use xlink:href="#DejaVuSans-35" x="95.410156"/>
      </g>
     </g>
    </g>
    <g id="xtick_10">
     <g id="line2d_49">
      <path d="M 515.388451 235.9375 
L 515.388451 42.48 
" clip-path="url(#pb2070e2aa2)" style="fill: none; stroke-dasharray: 0.8,1.32; stroke-dashoffset: 0; stroke: #b0b0b0; stroke-width: 0.8"/>
     </g>
     <g id="line2d_50">
      <g>
       <use xlink:href="#mfae0b7acc1" x="515.388451" y="235.9375" style="stroke: #000000; stroke-width: 0.8"/>
      </g>
     </g>
     <g id="text_21">
      <!-- 5.0 -->
      <g transform="translate(505.846576 252.055625)scale(0.12 -0.12)">
       <use xlink:href="#DejaVuSans-35"/>
       <use xlink:href="#DejaVuSans-2e" x="63.623047"/>
       <use xlink:href="#DejaVuSans-30" x="95.410156"/>
      </g>
     </g>
    </g>
    <g id="xtick_11">
     <g id="line2d_51">
      <path d="M 559.707416 235.9375 
L 559.707416 42.48 
" clip-path="url(#pb2070e2aa2)" style="fill: none; stroke-dasharray: 0.8,1.32; stroke-dashoffset: 0; stroke: #b0b0b0; stroke-width: 0.8"/>
     </g>
     <g id="line2d_52">
      <g>
       <use xlink:href="#mfae0b7acc1" x="559.707416" y="235.9375" style="stroke: #000000; stroke-width: 0.8"/>
      </g>
     </g>
     <g id="text_22">
      <!-- 7.5 -->
      <g transform="translate(550.165541 252.055625)scale(0.12 -0.12)">
       <use xlink:href="#DejaVuSans-37"/>
       <use xlink:href="#DejaVuSans-2e" x="63.623047"/>
       <use xlink:href="#DejaVuSans-35" x="95.410156"/>
      </g>
     </g>
    </g>
    <g id="xtick_12">
     <g id="line2d_53">
      <path d="M 604.026381 235.9375 
L 604.026381 42.48 
" clip-path="url(#pb2070e2aa2)" style="fill: none; stroke-dasharray: 0.8,1.32; stroke-dashoffset: 0; stroke: #b0b0b0; stroke-width: 0.8"/>
     </g>
     <g id="line2d_54">
      <g>
       <use xlink:href="#mfae0b7acc1" x="604.026381" y="235.9375" style="stroke: #000000; stroke-width: 0.8"/>
      </g>
     </g>
     <g id="text_23">
      <!-- 10.0 -->
      <g transform="translate(590.667006 252.055625)scale(0.12 -0.12)">
       <use xlink:href="#DejaVuSans-31"/>
       <use xlink:href="#DejaVuSans-30" x="63.623047"/>
       <use xlink:href="#DejaVuSans-2e" x="127.246094"/>
       <use xlink:href="#DejaVuSans-30" x="159.033203"/>
      </g>
     </g>
    </g>
    <g id="xtick_13">
     <g id="line2d_55">
      <path d="M 648.345346 235.9375 
L 648.345346 42.48 
" clip-path="url(#pb2070e2aa2)" style="fill: none; stroke-dasharray: 0.8,1.32; stroke-dashoffset: 0; stroke: #b0b0b0; stroke-width: 0.8"/>
     </g>
     <g id="line2d_56">
      <g>
       <use xlink:href="#mfae0b7acc1" x="648.345346" y="235.9375" style="stroke: #000000; stroke-width: 0.8"/>
      </g>
     </g>
     <g id="text_24">
      <!-- 12.5 -->
      <g transform="translate(634.985971 252.055625)scale(0.12 -0.12)">
       <use xlink:href="#DejaVuSans-31"/>
       <use xlink:href="#DejaVuSans-32" x="63.623047"/>
       <use xlink:href="#DejaVuSans-2e" x="127.246094"/>
       <use xlink:href="#DejaVuSans-35" x="159.033203"/>
      </g>
     </g>
    </g>
    <g id="xtick_14">
     <g id="line2d_57">
      <path d="M 692.664311 235.9375 
L 692.664311 42.48 
" clip-path="url(#pb2070e2aa2)" style="fill: none; stroke-dasharray: 0.8,1.32; stroke-dashoffset: 0; stroke: #b0b0b0; stroke-width: 0.8"/>
     </g>
     <g id="line2d_58">
      <g>
       <use xlink:href="#mfae0b7acc1" x="692.664311" y="235.9375" style="stroke: #000000; stroke-width: 0.8"/>
      </g>
     </g>
     <g id="text_25">
      <!-- 15.0 -->
      <g transform="translate(679.304936 252.055625)scale(0.12 -0.12)">
       <use xlink:href="#DejaVuSans-31"/>
       <use xlink:href="#DejaVuSans-35" x="63.623047"/>
       <use xlink:href="#DejaVuSans-2e" x="127.246094"/>
       <use xlink:href="#DejaVuSans-30" x="159.033203"/>
      </g>
     </g>
    </g>
    <g id="text_26">
     <!-- $t$  $[s]$ -->
     <g transform="translate(544.562416 268.429219)scale(0.13 -0.13)">
      <use xlink:href="#DejaVuSans-Oblique-74" transform="translate(0 0.015625)"/>
      <use xlink:href="#DejaVuSans-20" transform="translate(39.208984 0.015625)"/>
      <use xlink:href="#DejaVuSans-20" transform="translate(70.996094 0.015625)"/>
      <use xlink:href="#DejaVuSans-5b" transform="translate(102.783203 0.015625)"/>
      <use xlink:href="#DejaVuSans-Oblique-73" transform="translate(141.796875 0.015625)"/>
      <use xlink:href="#DejaVuSans-5d" transform="translate(193.896484 0.015625)"/>
     </g>
    </g>
   </g>
   <g id="matplotlib.axis_4">
    <g id="ytick_8">
     <g id="line2d_59">
      <path d="M 413.454831 223.518385 
L 705.96 223.518385 
" clip-path="url(#pb2070e2aa2)" style="fill: none; stroke-dasharray: 0.8,1.32; stroke-dashoffset: 0; stroke: #b0b0b0; stroke-width: 0.8"/>
     </g>
     <g id="line2d_60">
      <g>
       <use xlink:href="#meee37ba448" x="413.454831" y="223.518385" style="stroke: #000000; stroke-width: 0.8"/>
      </g>
     </g>
     <g id="text_27">
      <!-- 0 -->
      <g transform="translate(398.819831 228.077448)scale(0.12 -0.12)">
       <use xlink:href="#DejaVuSans-30"/>
      </g>
     </g>
    </g>
    <g id="ytick_9">
     <g id="line2d_61">
      <path d="M 413.454831 189.390066 
L 705.96 189.390066 
" clip-path="url(#pb2070e2aa2)" style="fill: none; stroke-dasharray: 0.8,1.32; stroke-dashoffset: 0; stroke: #b0b0b0; stroke-width: 0.8"/>
     </g>
     <g id="line2d_62">
      <g>
       <use xlink:href="#meee37ba448" x="413.454831" y="189.390066" style="stroke: #000000; stroke-width: 0.8"/>
      </g>
     </g>
     <g id="text_28">
      <!-- 2 -->
      <g transform="translate(398.819831 193.949128)scale(0.12 -0.12)">
       <use xlink:href="#DejaVuSans-32"/>
      </g>
     </g>
    </g>
    <g id="ytick_10">
     <g id="line2d_63">
      <path d="M 413.454831 155.261746 
L 705.96 155.261746 
" clip-path="url(#pb2070e2aa2)" style="fill: none; stroke-dasharray: 0.8,1.32; stroke-dashoffset: 0; stroke: #b0b0b0; stroke-width: 0.8"/>
     </g>
     <g id="line2d_64">
      <g>
       <use xlink:href="#meee37ba448" x="413.454831" y="155.261746" style="stroke: #000000; stroke-width: 0.8"/>
      </g>
     </g>
     <g id="text_29">
      <!-- 4 -->
      <g transform="translate(398.819831 159.820808)scale(0.12 -0.12)">
       <defs>
        <path id="DejaVuSans-34" d="M 2419 4116 
L 825 1625 
L 2419 1625 
L 2419 4116 
z
M 2253 4666 
L 3047 4666 
L 3047 1625 
L 3713 1625 
L 3713 1100 
L 3047 1100 
L 3047 0 
L 2419 0 
L 2419 1100 
L 313 1100 
L 313 1709 
L 2253 4666 
z
" transform="scale(0.015625)"/>
       </defs>
       <use xlink:href="#DejaVuSans-34"/>
      </g>
     </g>
    </g>
    <g id="ytick_11">
     <g id="line2d_65">
      <path d="M 413.454831 121.133426 
L 705.96 121.133426 
" clip-path="url(#pb2070e2aa2)" style="fill: none; stroke-dasharray: 0.8,1.32; stroke-dashoffset: 0; stroke: #b0b0b0; stroke-width: 0.8"/>
     </g>
     <g id="line2d_66">
      <g>
       <use xlink:href="#meee37ba448" x="413.454831" y="121.133426" style="stroke: #000000; stroke-width: 0.8"/>
      </g>
     </g>
     <g id="text_30">
      <!-- 6 -->
      <g transform="translate(398.819831 125.692489)scale(0.12 -0.12)">
       <defs>
        <path id="DejaVuSans-36" d="M 2113 2584 
Q 1688 2584 1439 2293 
Q 1191 2003 1191 1497 
Q 1191 994 1439 701 
Q 1688 409 2113 409 
Q 2538 409 2786 701 
Q 3034 994 3034 1497 
Q 3034 2003 2786 2293 
Q 2538 2584 2113 2584 
z
M 3366 4563 
L 3366 3988 
Q 3128 4100 2886 4159 
Q 2644 4219 2406 4219 
Q 1781 4219 1451 3797 
Q 1122 3375 1075 2522 
Q 1259 2794 1537 2939 
Q 1816 3084 2150 3084 
Q 2853 3084 3261 2657 
Q 3669 2231 3669 1497 
Q 3669 778 3244 343 
Q 2819 -91 2113 -91 
Q 1303 -91 875 529 
Q 447 1150 447 2328 
Q 447 3434 972 4092 
Q 1497 4750 2381 4750 
Q 2619 4750 2861 4703 
Q 3103 4656 3366 4563 
z
" transform="scale(0.015625)"/>
       </defs>
       <use xlink:href="#DejaVuSans-36"/>
      </g>
     </g>
    </g>
    <g id="ytick_12">
     <g id="line2d_67">
      <path d="M 413.454831 87.005106 
L 705.96 87.005106 
" clip-path="url(#pb2070e2aa2)" style="fill: none; stroke-dasharray: 0.8,1.32; stroke-dashoffset: 0; stroke: #b0b0b0; stroke-width: 0.8"/>
     </g>
     <g id="line2d_68">
      <g>
       <use xlink:href="#meee37ba448" x="413.454831" y="87.005106" style="stroke: #000000; stroke-width: 0.8"/>
      </g>
     </g>
     <g id="text_31">
      <!-- 8 -->
      <g transform="translate(398.819831 91.564169)scale(0.12 -0.12)">
       <defs>
        <path id="DejaVuSans-38" d="M 2034 2216 
Q 1584 2216 1326 1975 
Q 1069 1734 1069 1313 
Q 1069 891 1326 650 
Q 1584 409 2034 409 
Q 2484 409 2743 651 
Q 3003 894 3003 1313 
Q 3003 1734 2745 1975 
Q 2488 2216 2034 2216 
z
M 1403 2484 
Q 997 2584 770 2862 
Q 544 3141 544 3541 
Q 544 4100 942 4425 
Q 1341 4750 2034 4750 
Q 2731 4750 3128 4425 
Q 3525 4100 3525 3541 
Q 3525 3141 3298 2862 
Q 3072 2584 2669 2484 
Q 3125 2378 3379 2068 
Q 3634 1759 3634 1313 
Q 3634 634 3220 271 
Q 2806 -91 2034 -91 
Q 1263 -91 848 271 
Q 434 634 434 1313 
Q 434 1759 690 2068 
Q 947 2378 1403 2484 
z
M 1172 3481 
Q 1172 3119 1398 2916 
Q 1625 2713 2034 2713 
Q 2441 2713 2670 2916 
Q 2900 3119 2900 3481 
Q 2900 3844 2670 4047 
Q 2441 4250 2034 4250 
Q 1625 4250 1398 4047 
Q 1172 3844 1172 3481 
z
" transform="scale(0.015625)"/>
       </defs>
       <use xlink:href="#DejaVuSans-38"/>
      </g>
     </g>
    </g>
    <g id="ytick_13">
     <g id="line2d_69">
      <path d="M 413.454831 52.876787 
L 705.96 52.876787 
" clip-path="url(#pb2070e2aa2)" style="fill: none; stroke-dasharray: 0.8,1.32; stroke-dashoffset: 0; stroke: #b0b0b0; stroke-width: 0.8"/>
     </g>
     <g id="line2d_70">
      <g>
       <use xlink:href="#meee37ba448" x="413.454831" y="52.876787" style="stroke: #000000; stroke-width: 0.8"/>
      </g>
     </g>
     <g id="text_32">
      <!-- 10 -->
      <g transform="translate(391.184831 57.435849)scale(0.12 -0.12)">
       <use xlink:href="#DejaVuSans-31"/>
       <use xlink:href="#DejaVuSans-30" x="63.623047"/>
      </g>
     </g>
    </g>
    <g id="text_33">
     <!-- $\tau$  $[N\cdot rad]$ -->
     <g transform="translate(384.481238 172.61875)rotate(-90)scale(0.13 -0.13)">
      <defs>
       <path id="DejaVuSans-Oblique-3c4" d="M 2103 638 
Q 2188 488 2525 488 
L 2800 488 
L 2706 0 
L 2363 0 
Q 1800 0 1600 300 
Q 1403 606 1534 1269 
L 1856 2925 
L 541 2925 
L 653 3500 
L 3881 3500 
L 3769 2925 
L 2444 2925 
L 2113 1234 
Q 2025 781 2103 638 
z
" transform="scale(0.015625)"/>
       <path id="DejaVuSans-Oblique-4e" d="M 1081 4666 
L 1931 4666 
L 3219 666 
L 4000 4666 
L 4616 4666 
L 3706 0 
L 2853 0 
L 1569 4025 
L 788 0 
L 172 0 
L 1081 4666 
z
" transform="scale(0.015625)"/>
       <path id="DejaVuSans-22c5" d="M 684 2619 
L 1344 2619 
L 1344 1825 
L 684 1825 
L 684 2619 
z
" transform="scale(0.015625)"/>
      </defs>
      <use xlink:href="#DejaVuSans-Oblique-3c4" transform="translate(0 0.015625)"/>
      <use xlink:href="#DejaVuSans-20" transform="translate(60.205078 0.015625)"/>
      <use xlink:href="#DejaVuSans-20" transform="translate(91.992188 0.015625)"/>
      <use xlink:href="#DejaVuSans-5b" transform="translate(123.779297 0.015625)"/>
      <use xlink:href="#DejaVuSans-Oblique-4e" transform="translate(162.792969 0.015625)"/>
      <use xlink:href="#DejaVuSans-22c5" transform="translate(257.080078 0.015625)"/>
      <use xlink:href="#DejaVuSans-Oblique-72" transform="translate(308.349609 0.015625)"/>
      <use xlink:href="#DejaVuSans-Oblique-61" transform="translate(349.462891 0.015625)"/>
      <use xlink:href="#DejaVuSans-Oblique-64" transform="translate(410.742188 0.015625)"/>
      <use xlink:href="#DejaVuSans-5d" transform="translate(474.21875 0.015625)"/>
     </g>
    </g>
   </g>
   <g id="line2d_71">
    <path d="M 426.750521 227.011174 
L 428.535177 227.143977 
L 430.319833 226.395117 
L 432.10449 224.80841 
L 433.889146 222.434484 
L 435.673802 219.293246 
L 437.458459 215.398976 
L 439.243115 210.772376 
L 441.027771 205.40902 
L 442.812428 199.287967 
L 444.597084 192.538905 
L 446.38174 185.099969 
L 448.166396 177.052177 
L 451.735709 159.551256 
L 458.874334 123.104263 
L 462.443647 106.151708 
L 464.228303 98.366401 
L 466.01296 91.181739 
L 467.797616 84.739782 
L 469.582272 79.165128 
L 471.366928 74.429138 
L 473.151585 70.718306 
L 474.936241 67.83372 
L 476.720897 65.725599 
L 478.505554 64.325007 
L 480.29021 63.546492 
L 482.074866 63.295357 
L 483.859523 63.470754 
L 485.644179 63.966238 
L 487.428835 64.679382 
L 490.998148 66.486425 
L 494.56746 68.361572 
L 496.352117 69.179925 
L 498.136773 69.857186 
L 499.921429 70.378756 
L 501.706086 70.733636 
L 503.490742 70.914957 
L 505.275398 70.922622 
L 507.060055 70.762278 
L 508.844711 70.444258 
L 510.629367 69.982705 
L 514.19868 68.697819 
L 517.767992 67.043244 
L 523.121961 64.246959 
L 528.47593 61.315179 
L 532.045243 59.586576 
L 535.614556 58.100059 
L 539.183868 56.871366 
L 542.753181 55.938918 
L 546.322493 55.303481 
L 549.891806 54.939032 
L 553.461119 54.814718 
L 557.030431 54.886761 
L 562.3844 55.260844 
L 582.015619 57.055112 
L 589.154245 57.327191 
L 598.077526 57.379771 
L 614.139433 57.156545 
L 660.540497 56.508984 
L 681.956373 56.417835 
L 692.664311 56.445549 
L 692.664311 56.445549 
" clip-path="url(#pb2070e2aa2)" style="fill: none; stroke: #1911df; stroke-width: 1.5; stroke-linecap: square"/>
   </g>
   <g id="line2d_72">
    <path d="M 426.750521 185.704116 
L 428.535177 185.88706 
L 430.319833 184.779236 
L 432.10449 182.481998 
L 433.889146 179.07384 
L 435.673802 174.646825 
L 437.458459 169.290695 
L 439.243115 163.131578 
L 441.027771 156.263898 
L 444.597084 141.12751 
L 451.735709 109.415795 
L 455.305022 95.071581 
L 457.089678 88.622886 
L 458.874334 82.790817 
L 460.658991 77.757881 
L 462.443647 73.529433 
L 464.228303 70.078687 
L 466.01296 67.290457 
L 467.797616 65.397864 
L 469.582272 64.082627 
L 471.366928 63.282257 
L 473.151585 62.930485 
L 474.936241 62.961584 
L 476.720897 63.301557 
L 478.505554 63.872437 
L 482.074866 65.381525 
L 485.644179 66.945748 
L 489.213492 68.224223 
L 490.998148 68.680943 
L 492.782804 68.998279 
L 494.56746 69.169478 
L 496.352117 69.193563 
L 498.136773 69.074163 
L 499.921429 68.816909 
L 501.706086 68.430931 
L 505.275398 67.324908 
L 508.844711 65.876423 
L 514.19868 63.353682 
L 521.337305 59.979698 
L 524.906618 58.515509 
L 528.47593 57.287662 
L 532.045243 56.307923 
L 535.614556 55.60124 
L 539.183868 55.153389 
L 542.753181 54.940823 
L 546.322493 54.92795 
L 551.676462 55.190542 
L 558.815088 55.822838 
L 569.523025 56.763162 
L 576.661651 57.150475 
L 583.800276 57.307744 
L 594.508214 57.284961 
L 674.817747 56.419609 
L 692.664311 56.480001 
L 692.664311 56.480001 
" clip-path="url(#pb2070e2aa2)" style="fill: none; stroke: #1911df; stroke-width: 1.5; stroke-linecap: square"/>
   </g>
   <g id="line2d_73">
    <path d="M 426.750521 147.132618 
L 428.535177 147.461964 
L 430.319833 146.479971 
L 432.10449 144.296983 
L 433.889146 141.060829 
L 435.673802 136.93921 
L 437.458459 132.125041 
L 439.243115 126.837495 
L 442.812428 115.137456 
L 448.166396 96.971497 
L 449.951053 91.193057 
L 451.735709 85.801686 
L 453.520365 80.921072 
L 455.305022 76.582272 
L 457.089678 72.812188 
L 458.874334 69.687045 
L 460.658991 67.188551 
L 462.443647 65.257455 
L 464.228303 63.839027 
L 466.01296 62.897011 
L 467.797616 62.356855 
L 469.582272 62.1452 
L 471.366928 62.179701 
L 473.151585 62.463367 
L 476.720897 63.401445 
L 483.859523 65.543659 
L 487.428835 66.217568 
L 489.213492 66.384291 
L 490.998148 66.434902 
L 494.56746 66.197437 
L 498.136773 65.547744 
L 501.706086 64.564751 
L 505.275398 63.343153 
L 519.552649 58.059082 
L 523.121961 57.032963 
L 526.691274 56.222665 
L 530.260587 55.635919 
L 533.829899 55.267809 
L 537.399212 55.101867 
L 542.753181 55.160549 
L 549.891806 55.569718 
L 562.3844 56.608872 
L 569.523025 56.980611 
L 578.446307 57.182957 
L 589.154245 57.172217 
L 624.847371 56.747361 
L 656.971184 56.450301 
L 681.956373 56.474289 
L 692.664311 56.517284 
L 692.664311 56.517284 
" clip-path="url(#pb2070e2aa2)" style="fill: none; stroke: #1911df; stroke-width: 1.5; stroke-linecap: square"/>
   </g>
   <g id="line2d_74">
    <path d="M 426.750521 115.398429 
L 428.535177 115.819908 
L 430.319833 115.268972 
L 432.10449 113.841716 
L 433.889146 111.660094 
L 435.673802 108.834915 
L 437.458459 105.497531 
L 439.243115 101.757838 
L 442.812428 93.59482 
L 446.38174 85.281336 
L 449.951053 77.647838 
L 451.735709 74.290063 
L 453.520365 71.335875 
L 455.305022 68.803288 
L 457.089678 66.671716 
L 458.874334 64.917514 
L 460.658991 63.536939 
L 462.443647 62.512269 
L 464.228303 61.793087 
L 466.01296 61.33282 
L 467.797616 61.093158 
L 469.582272 61.042872 
L 473.151585 61.335326 
L 478.505554 62.226927 
L 482.074866 62.797041 
L 485.644179 63.177715 
L 489.213492 63.281834 
L 492.782804 63.085671 
L 496.352117 62.60965 
L 499.921429 61.891982 
L 505.275398 60.535216 
L 515.983336 57.717026 
L 521.337305 56.613168 
L 524.906618 56.043135 
L 530.260587 55.506039 
L 535.614556 55.29069 
L 540.968524 55.357298 
L 548.10715 55.722055 
L 565.953713 56.81296 
L 574.876994 57.050962 
L 585.584932 57.100027 
L 607.000808 56.91288 
L 656.971184 56.466721 
L 685.525685 56.499301 
L 692.664311 56.523647 
L 692.664311 56.523647 
" clip-path="url(#pb2070e2aa2)" style="fill: none; stroke: #1911df; stroke-width: 1.5; stroke-linecap: square"/>
   </g>
   <g id="line2d_75">
    <path d="M 426.750521 90.206036 
L 428.535177 90.611006 
L 430.319833 90.419514 
L 432.10449 89.68925 
L 433.889146 88.496049 
L 435.673802 86.905528 
L 437.458459 85.003545 
L 441.027771 80.565053 
L 446.38174 73.479489 
L 449.951053 69.237306 
L 451.735709 67.381362 
L 453.520365 65.742735 
L 455.305022 64.3253 
L 457.089678 63.127559 
L 458.874334 62.150131 
L 460.658991 61.37173 
L 462.443647 60.781647 
L 464.228303 60.356124 
L 466.01296 60.069236 
L 469.582272 59.831136 
L 473.151585 59.883293 
L 483.859523 60.361153 
L 487.428835 60.327271 
L 490.998148 60.139147 
L 496.352117 59.589472 
L 503.490742 58.521335 
L 514.19868 56.851544 
L 519.552649 56.225172 
L 524.906618 55.826809 
L 530.260587 55.637904 
L 537.399212 55.664821 
L 546.322493 55.976657 
L 564.169056 56.677351 
L 574.876994 56.86401 
L 590.938901 56.883636 
L 630.20134 56.598131 
L 660.540497 56.484574 
L 692.664311 56.543582 
L 692.664311 56.543582 
" clip-path="url(#pb2070e2aa2)" style="fill: none; stroke: #1911df; stroke-width: 1.5; stroke-linecap: square"/>
   </g>
   <g id="line2d_76">
    <path d="M 426.750521 71.361929 
L 428.535177 71.694969 
L 430.319833 71.744246 
L 432.10449 71.532217 
L 433.889146 71.094618 
L 435.673802 70.469059 
L 439.243115 68.800391 
L 449.951053 63.029266 
L 453.520365 61.513002 
L 457.089678 60.356157 
L 460.658991 59.536306 
L 464.228303 59.021066 
L 467.797616 58.738295 
L 473.151585 58.578618 
L 485.644179 58.392789 
L 492.782804 58.020936 
L 503.490742 57.169727 
L 514.19868 56.369193 
L 521.337305 56.034884 
L 528.47593 55.8969 
L 537.399212 55.96188 
L 551.676462 56.333196 
L 567.738369 56.681045 
L 583.800276 56.783488 
L 610.57012 56.686302 
L 658.755841 56.506218 
L 692.664311 56.548676 
L 692.664311 56.548676 
" clip-path="url(#pb2070e2aa2)" style="fill: none; stroke: #1911df; stroke-width: 1.5; stroke-linecap: square"/>
   </g>
   <g id="line2d_77">
    <path d="M 426.750521 60.025102 
L 430.319833 60.339769 
L 433.889146 60.375229 
L 437.458459 60.196203 
L 442.812428 59.682737 
L 455.305022 58.352593 
L 462.443647 57.870112 
L 471.366928 57.535786 
L 524.906618 56.222063 
L 539.183868 56.305271 
L 576.661651 56.648937 
L 608.785464 56.621175 
L 673.033091 56.542394 
L 692.664311 56.556812 
L 692.664311 56.556812 
" clip-path="url(#pb2070e2aa2)" style="fill: none; stroke: #1911df; stroke-width: 1.5; stroke-linecap: square"/>
   </g>
   <g id="line2d_78">
    <path d="M 426.750521 56.561971 
L 549.891806 56.561174 
L 692.664311 56.560197 
L 692.664311 56.560197 
" clip-path="url(#pb2070e2aa2)" style="fill: none; stroke: #1911df; stroke-width: 1.5; stroke-linecap: square"/>
   </g>
   <g id="line2d_79">
    <path d="M 426.750521 60.698603 
L 432.10449 59.98004 
L 439.243115 58.685845 
L 448.166396 57.06595 
L 453.520365 56.316678 
L 458.874334 55.813904 
L 464.228303 55.56534 
L 469.582272 55.53525 
L 476.720897 55.737597 
L 505.275398 56.880105 
L 517.767992 56.954378 
L 542.753181 56.791381 
L 587.369588 56.478178 
L 623.062715 56.535087 
L 678.38706 56.575901 
L 692.664311 56.565747 
L 692.664311 56.565747 
" clip-path="url(#pb2070e2aa2)" style="fill: none; stroke: #1911df; stroke-width: 1.5; stroke-linecap: square"/>
   </g>
   <g id="line2d_80">
    <path d="M 426.750521 72.572868 
L 428.535177 72.161502 
L 430.319833 71.59404 
L 433.889146 70.069492 
L 437.458459 68.223914 
L 451.735709 60.0583 
L 455.305022 58.387452 
L 458.874334 57.043915 
L 462.443647 56.008374 
L 466.01296 55.293652 
L 469.582272 54.874263 
L 473.151585 54.725311 
L 476.720897 54.79091 
L 482.074866 55.163641 
L 503.490742 57.152412 
L 510.629367 57.395117 
L 519.552649 57.415443 
L 539.183868 57.105039 
L 583.800276 56.48446 
L 605.216151 56.415248 
L 692.664311 56.579482 
L 692.664311 56.579482 
" clip-path="url(#pb2070e2aa2)" style="fill: none; stroke: #1911df; stroke-width: 1.5; stroke-linecap: square"/>
   </g>
   <g id="line2d_81">
    <path d="M 426.750521 92.388536 
L 428.535177 91.715515 
L 430.319833 90.686605 
L 432.10449 89.339553 
L 433.889146 87.717046 
L 435.673802 85.866504 
L 439.243115 81.67573 
L 449.951053 68.238153 
L 453.520365 64.35635 
L 457.089678 61.061684 
L 458.874334 59.625616 
L 460.658991 58.40213 
L 462.443647 57.33357 
L 464.228303 56.421611 
L 466.01296 55.666172 
L 467.797616 55.064144 
L 469.582272 54.608824 
L 471.366928 54.291618 
L 473.151585 54.101786 
L 476.720897 54.051419 
L 480.29021 54.339706 
L 483.859523 54.855093 
L 498.136773 57.303203 
L 503.490742 57.836621 
L 508.844711 58.080335 
L 514.19868 58.098838 
L 523.121961 57.856182 
L 542.753181 57.239394 
L 582.015619 56.490107 
L 599.862183 56.352008 
L 621.278058 56.440016 
L 660.540497 56.61888 
L 692.664311 56.586235 
L 692.664311 56.586235 
" clip-path="url(#pb2070e2aa2)" style="fill: none; stroke: #1911df; stroke-width: 1.5; stroke-linecap: square"/>
   </g>
   <g id="line2d_82">
    <path d="M 426.750521 119.413415 
L 428.535177 118.422285 
L 430.319833 116.799663 
L 432.10449 114.611427 
L 433.889146 111.927747 
L 435.673802 108.823841 
L 437.458459 105.38076 
L 441.027771 97.79994 
L 448.166396 82.001154 
L 451.735709 74.814856 
L 453.520365 71.573926 
L 455.305022 68.581836 
L 457.089678 65.845145 
L 458.874334 63.381396 
L 460.658991 61.220418 
L 462.443647 59.350705 
L 464.228303 57.758442 
L 466.01296 56.430268 
L 467.797616 55.360715 
L 469.582272 54.538619 
L 471.366928 53.941734 
L 473.151585 53.548758 
L 474.936241 53.339886 
L 476.720897 53.294954 
L 478.505554 53.391164 
L 482.074866 53.921685 
L 485.644179 54.75309 
L 496.352117 57.555673 
L 499.921429 58.252934 
L 503.490742 58.756929 
L 507.060055 59.051921 
L 510.629367 59.141198 
L 515.983336 58.968698 
L 526.691274 58.252901 
L 535.614556 57.737531 
L 546.322493 57.375768 
L 594.508214 56.31165 
L 608.785464 56.300388 
L 676.602404 56.627521 
L 692.664311 56.591931 
L 692.664311 56.591931 
" clip-path="url(#pb2070e2aa2)" style="fill: none; stroke: #1911df; stroke-width: 1.5; stroke-linecap: square"/>
   </g>
   <g id="line2d_83">
    <path d="M 426.750521 151.859568 
L 428.535177 150.570248 
L 430.319833 148.377324 
L 432.10449 145.417839 
L 433.889146 141.702922 
L 435.673802 137.406215 
L 439.243115 127.259593 
L 442.812428 115.773211 
L 449.951053 92.017236 
L 453.520365 81.23351 
L 455.305022 76.42253 
L 457.089678 72.073869 
L 458.874334 68.155206 
L 460.658991 64.702312 
L 462.443647 61.735251 
L 464.228303 59.245643 
L 466.01296 57.211859 
L 467.797616 55.571459 
L 469.582272 54.322521 
L 471.366928 53.431799 
L 473.151585 52.862775 
L 474.936241 52.577286 
L 476.720897 52.542119 
L 478.505554 52.719957 
L 480.29021 53.073389 
L 483.859523 54.153845 
L 496.352117 58.674942 
L 499.921429 59.565013 
L 503.490742 60.138496 
L 507.060055 60.393537 
L 510.629367 60.378419 
L 514.19868 60.16429 
L 521.337305 59.416679 
L 530.260587 58.454532 
L 537.399212 57.922953 
L 544.537837 57.610076 
L 587.369588 56.381643 
L 599.862183 56.223691 
L 614.139433 56.285286 
L 658.755841 56.660557 
L 692.664311 56.601158 
L 692.664311 56.601158 
" clip-path="url(#pb2070e2aa2)" style="fill: none; stroke: #1911df; stroke-width: 1.5; stroke-linecap: square"/>
   </g>
   <g id="line2d_84">
    <path d="M 426.750521 187.768022 
L 428.535177 186.27013 
L 430.319833 183.662155 
L 432.10449 180.031146 
L 433.889146 175.469804 
L 435.673802 170.06443 
L 437.458459 163.91482 
L 439.243115 157.141422 
L 442.812428 142.224916 
L 453.520365 95.400374 
L 455.305022 88.54902 
L 457.089678 82.228334 
L 458.874334 76.504598 
L 460.658991 71.42193 
L 464.228303 63.37972 
L 466.01296 60.122841 
L 467.797616 57.512873 
L 469.582272 55.48197 
L 471.366928 53.96512 
L 473.151585 52.902955 
L 474.936241 52.242407 
L 476.720897 51.934656 
L 478.505554 51.932589 
L 480.29021 52.189648 
L 482.074866 52.658785 
L 485.644179 54.048587 
L 490.998148 56.643307 
L 494.56746 58.337264 
L 498.136773 59.756635 
L 501.706086 60.786172 
L 505.275398 61.386425 
L 508.844711 61.580391 
L 512.414024 61.443318 
L 517.767992 60.84518 
L 535.614556 58.447436 
L 540.968524 58.056283 
L 548.10715 57.748808 
L 578.446307 56.769655 
L 592.723557 56.286914 
L 603.431495 56.155602 
L 615.924089 56.234171 
L 656.971184 56.676944 
L 687.310342 56.636586 
L 692.664311 56.617627 
L 692.664311 56.617627 
" clip-path="url(#pb2070e2aa2)" style="fill: none; stroke: #1911df; stroke-width: 1.5; stroke-linecap: square"/>
   </g>
   <g id="line2d_85">
    <path d="M 426.750521 225.526748 
L 428.535177 223.899982 
L 430.319833 221.034851 
L 432.10449 217.026661 
L 433.889146 211.96393 
L 435.673802 205.938416 
L 437.458459 199.043056 
L 439.243115 191.374926 
L 441.027771 183.037003 
L 444.597084 164.810294 
L 455.305022 106.910499 
L 457.089678 98.226863 
L 458.874334 90.173082 
L 460.658991 82.851501 
L 462.443647 76.332944 
L 464.228303 70.626051 
L 466.01296 65.735607 
L 467.797616 61.648952 
L 469.582272 58.332723 
L 471.366928 55.736995 
L 473.151585 53.986324 
L 474.936241 52.525992 
L 476.720897 51.652731 
L 478.505554 51.273523 
L 480.29021 51.304426 
L 482.074866 51.669396 
L 483.859523 52.298275 
L 485.644179 53.123105 
L 489.213492 55.146993 
L 496.352117 59.453555 
L 499.921429 61.144745 
L 501.706086 61.797921 
L 503.490742 62.315358 
L 505.275398 62.691295 
L 507.060055 62.92601 
L 508.844711 63.032879 
L 512.414024 62.91841 
L 515.983336 62.46392 
L 521.337305 61.424278 
L 528.47593 59.95366 
L 533.829899 59.066551 
L 539.183868 58.440699 
L 544.537837 58.058887 
L 551.676462 57.798752 
L 569.523025 57.277947 
L 596.29287 56.213341 
L 607.000808 56.10914 
L 619.493402 56.226457 
L 653.401872 56.675464 
L 678.38706 56.680655 
L 692.664311 56.629328 
L 692.664311 56.629328 
" clip-path="url(#pb2070e2aa2)" style="fill: none; stroke: #1911df; stroke-width: 1.5; stroke-linecap: square"/>
   </g>
   <g id="patch_11">
    <path d="M 413.454831 235.9375 
L 413.454831 42.48 
" style="fill: none; stroke: #000000; stroke-width: 0.8; stroke-linejoin: miter; stroke-linecap: square"/>
   </g>
   <g id="patch_12">
    <path d="M 705.96 235.9375 
L 705.96 42.48 
" style="fill: none; stroke: #000000; stroke-width: 0.8; stroke-linejoin: miter; stroke-linecap: square"/>
   </g>
   <g id="patch_13">
    <path d="M 413.454831 235.9375 
L 705.96 235.9375 
" style="fill: none; stroke: #000000; stroke-width: 0.8; stroke-linejoin: miter; stroke-linecap: square"/>
   </g>
   <g id="patch_14">
    <path d="M 413.454831 42.48 
L 705.96 42.48 
" style="fill: none; stroke: #000000; stroke-width: 0.8; stroke-linejoin: miter; stroke-linecap: square"/>
   </g>
   <g id="legend_2">
    <g id="patch_15">
     <path d="M 633.73 73.961562 
L 698.86 73.961562 
Q 701.46 73.961562 701.46 71.361562 
L 701.46 53.58 
Q 701.46 50.98 698.86 50.98 
L 633.73 50.98 
Q 631.13 50.98 631.13 53.58 
L 631.13 71.361562 
Q 631.13 73.961562 633.73 73.961562 
z
" style="fill: #4c4c4c; opacity: 0.5; stroke: #4c4c4c; stroke-linejoin: miter"/>
    </g>
    <g id="patch_16">
     <path d="M 631.73 71.961562 
L 696.86 71.961562 
Q 699.46 71.961562 699.46 69.361562 
L 699.46 51.58 
Q 699.46 48.98 696.86 48.98 
L 631.73 48.98 
Q 629.13 48.98 629.13 51.58 
L 629.13 69.361562 
Q 629.13 71.961562 631.73 71.961562 
z
" style="fill: #ffffff; stroke: #cccccc; stroke-linejoin: miter"/>
    </g>
    <g id="line2d_86">
     <path d="M 634.33 59.507969 
L 647.33 59.507969 
L 660.33 59.507969 
" style="fill: none; stroke: #1911df; stroke-width: 1.5; stroke-linecap: square"/>
    </g>
    <g id="text_34">
     <!-- $u(t)$ -->
     <g transform="translate(670.73 64.057969)scale(0.13 -0.13)">
      <defs>
       <path id="DejaVuSans-Oblique-75" d="M 428 1388 
L 838 3500 
L 1416 3500 
L 1006 1409 
Q 975 1256 961 1147 
Q 947 1038 947 966 
Q 947 700 1109 554 
Q 1272 409 1569 409 
Q 2031 409 2368 721 
Q 2706 1034 2809 1563 
L 3194 3500 
L 3769 3500 
L 3091 0 
L 2516 0 
L 2631 550 
Q 2388 244 2052 76 
Q 1716 -91 1338 -91 
Q 878 -91 622 161 
Q 366 413 366 863 
Q 366 956 381 1097 
Q 397 1238 428 1388 
z
" transform="scale(0.015625)"/>
      </defs>
      <use xlink:href="#DejaVuSans-Oblique-75" transform="translate(0 0.125)"/>
      <use xlink:href="#DejaVuSans-28" transform="translate(63.378906 0.125)"/>
      <use xlink:href="#DejaVuSans-Oblique-74" transform="translate(102.392578 0.125)"/>
      <use xlink:href="#DejaVuSans-29" transform="translate(141.601562 0.125)"/>
     </g>
    </g>
   </g>
  </g>
  <g id="text_35">
   <!-- Simple Pendulum Neural IDA-PBC Closed-loop response -->
   <g transform="translate(143.860781 11.853563)scale(0.156 -0.156)">
    <defs>
     <path id="DejaVuSans-53" d="M 3425 4513 
L 3425 3897 
Q 3066 4069 2747 4153 
Q 2428 4238 2131 4238 
Q 1616 4238 1336 4038 
Q 1056 3838 1056 3469 
Q 1056 3159 1242 3001 
Q 1428 2844 1947 2747 
L 2328 2669 
Q 3034 2534 3370 2195 
Q 3706 1856 3706 1288 
Q 3706 609 3251 259 
Q 2797 -91 1919 -91 
Q 1588 -91 1214 -16 
Q 841 59 441 206 
L 441 856 
Q 825 641 1194 531 
Q 1563 422 1919 422 
Q 2459 422 2753 634 
Q 3047 847 3047 1241 
Q 3047 1584 2836 1778 
Q 2625 1972 2144 2069 
L 1759 2144 
Q 1053 2284 737 2584 
Q 422 2884 422 3419 
Q 422 4038 858 4394 
Q 1294 4750 2059 4750 
Q 2388 4750 2728 4690 
Q 3069 4631 3425 4513 
z
" transform="scale(0.015625)"/>
     <path id="DejaVuSans-69" d="M 603 3500 
L 1178 3500 
L 1178 0 
L 603 0 
L 603 3500 
z
M 603 4863 
L 1178 4863 
L 1178 4134 
L 603 4134 
L 603 4863 
z
" transform="scale(0.015625)"/>
     <path id="DejaVuSans-6d" d="M 3328 2828 
Q 3544 3216 3844 3400 
Q 4144 3584 4550 3584 
Q 5097 3584 5394 3201 
Q 5691 2819 5691 2113 
L 5691 0 
L 5113 0 
L 5113 2094 
Q 5113 2597 4934 2840 
Q 4756 3084 4391 3084 
Q 3944 3084 3684 2787 
Q 3425 2491 3425 1978 
L 3425 0 
L 2847 0 
L 2847 2094 
Q 2847 2600 2669 2842 
Q 2491 3084 2119 3084 
Q 1678 3084 1418 2786 
Q 1159 2488 1159 1978 
L 1159 0 
L 581 0 
L 581 3500 
L 1159 3500 
L 1159 2956 
Q 1356 3278 1631 3431 
Q 1906 3584 2284 3584 
Q 2666 3584 2933 3390 
Q 3200 3197 3328 2828 
z
" transform="scale(0.015625)"/>
     <path id="DejaVuSans-70" d="M 1159 525 
L 1159 -1331 
L 581 -1331 
L 581 3500 
L 1159 3500 
L 1159 2969 
Q 1341 3281 1617 3432 
Q 1894 3584 2278 3584 
Q 2916 3584 3314 3078 
Q 3713 2572 3713 1747 
Q 3713 922 3314 415 
Q 2916 -91 2278 -91 
Q 1894 -91 1617 61 
Q 1341 213 1159 525 
z
M 3116 1747 
Q 3116 2381 2855 2742 
Q 2594 3103 2138 3103 
Q 1681 3103 1420 2742 
Q 1159 2381 1159 1747 
Q 1159 1113 1420 752 
Q 1681 391 2138 391 
Q 2594 391 2855 752 
Q 3116 1113 3116 1747 
z
" transform="scale(0.015625)"/>
     <path id="DejaVuSans-6c" d="M 603 4863 
L 1178 4863 
L 1178 0 
L 603 0 
L 603 4863 
z
" transform="scale(0.015625)"/>
     <path id="DejaVuSans-65" d="M 3597 1894 
L 3597 1613 
L 953 1613 
Q 991 1019 1311 708 
Q 1631 397 2203 397 
Q 2534 397 2845 478 
Q 3156 559 3463 722 
L 3463 178 
Q 3153 47 2828 -22 
Q 2503 -91 2169 -91 
Q 1331 -91 842 396 
Q 353 884 353 1716 
Q 353 2575 817 3079 
Q 1281 3584 2069 3584 
Q 2775 3584 3186 3129 
Q 3597 2675 3597 1894 
z
M 3022 2063 
Q 3016 2534 2758 2815 
Q 2500 3097 2075 3097 
Q 1594 3097 1305 2825 
Q 1016 2553 972 2059 
L 3022 2063 
z
" transform="scale(0.015625)"/>
     <path id="DejaVuSans-50" d="M 1259 4147 
L 1259 2394 
L 2053 2394 
Q 2494 2394 2734 2622 
Q 2975 2850 2975 3272 
Q 2975 3691 2734 3919 
Q 2494 4147 2053 4147 
L 1259 4147 
z
M 628 4666 
L 2053 4666 
Q 2838 4666 3239 4311 
Q 3641 3956 3641 3272 
Q 3641 2581 3239 2228 
Q 2838 1875 2053 1875 
L 1259 1875 
L 1259 0 
L 628 0 
L 628 4666 
z
" transform="scale(0.015625)"/>
     <path id="DejaVuSans-6e" d="M 3513 2113 
L 3513 0 
L 2938 0 
L 2938 2094 
Q 2938 2591 2744 2837 
Q 2550 3084 2163 3084 
Q 1697 3084 1428 2787 
Q 1159 2491 1159 1978 
L 1159 0 
L 581 0 
L 581 3500 
L 1159 3500 
L 1159 2956 
Q 1366 3272 1645 3428 
Q 1925 3584 2291 3584 
Q 2894 3584 3203 3211 
Q 3513 2838 3513 2113 
z
" transform="scale(0.015625)"/>
     <path id="DejaVuSans-64" d="M 2906 2969 
L 2906 4863 
L 3481 4863 
L 3481 0 
L 2906 0 
L 2906 525 
Q 2725 213 2448 61 
Q 2172 -91 1784 -91 
Q 1150 -91 751 415 
Q 353 922 353 1747 
Q 353 2572 751 3078 
Q 1150 3584 1784 3584 
Q 2172 3584 2448 3432 
Q 2725 3281 2906 2969 
z
M 947 1747 
Q 947 1113 1208 752 
Q 1469 391 1925 391 
Q 2381 391 2643 752 
Q 2906 1113 2906 1747 
Q 2906 2381 2643 2742 
Q 2381 3103 1925 3103 
Q 1469 3103 1208 2742 
Q 947 2381 947 1747 
z
" transform="scale(0.015625)"/>
     <path id="DejaVuSans-75" d="M 544 1381 
L 544 3500 
L 1119 3500 
L 1119 1403 
Q 1119 906 1312 657 
Q 1506 409 1894 409 
Q 2359 409 2629 706 
Q 2900 1003 2900 1516 
L 2900 3500 
L 3475 3500 
L 3475 0 
L 2900 0 
L 2900 538 
Q 2691 219 2414 64 
Q 2138 -91 1772 -91 
Q 1169 -91 856 284 
Q 544 659 544 1381 
z
M 1991 3584 
L 1991 3584 
z
" transform="scale(0.015625)"/>
     <path id="DejaVuSans-4e" d="M 628 4666 
L 1478 4666 
L 3547 763 
L 3547 4666 
L 4159 4666 
L 4159 0 
L 3309 0 
L 1241 3903 
L 1241 0 
L 628 0 
L 628 4666 
z
" transform="scale(0.015625)"/>
     <path id="DejaVuSans-72" d="M 2631 2963 
Q 2534 3019 2420 3045 
Q 2306 3072 2169 3072 
Q 1681 3072 1420 2755 
Q 1159 2438 1159 1844 
L 1159 0 
L 581 0 
L 581 3500 
L 1159 3500 
L 1159 2956 
Q 1341 3275 1631 3429 
Q 1922 3584 2338 3584 
Q 2397 3584 2469 3576 
Q 2541 3569 2628 3553 
L 2631 2963 
z
" transform="scale(0.015625)"/>
     <path id="DejaVuSans-61" d="M 2194 1759 
Q 1497 1759 1228 1600 
Q 959 1441 959 1056 
Q 959 750 1161 570 
Q 1363 391 1709 391 
Q 2188 391 2477 730 
Q 2766 1069 2766 1631 
L 2766 1759 
L 2194 1759 
z
M 3341 1997 
L 3341 0 
L 2766 0 
L 2766 531 
Q 2569 213 2275 61 
Q 1981 -91 1556 -91 
Q 1019 -91 701 211 
Q 384 513 384 1019 
Q 384 1609 779 1909 
Q 1175 2209 1959 2209 
L 2766 2209 
L 2766 2266 
Q 2766 2663 2505 2880 
Q 2244 3097 1772 3097 
Q 1472 3097 1187 3025 
Q 903 2953 641 2809 
L 641 3341 
Q 956 3463 1253 3523 
Q 1550 3584 1831 3584 
Q 2591 3584 2966 3190 
Q 3341 2797 3341 1997 
z
" transform="scale(0.015625)"/>
     <path id="DejaVuSans-49" d="M 628 4666 
L 1259 4666 
L 1259 0 
L 628 0 
L 628 4666 
z
" transform="scale(0.015625)"/>
     <path id="DejaVuSans-44" d="M 1259 4147 
L 1259 519 
L 2022 519 
Q 2988 519 3436 956 
Q 3884 1394 3884 2338 
Q 3884 3275 3436 3711 
Q 2988 4147 2022 4147 
L 1259 4147 
z
M 628 4666 
L 1925 4666 
Q 3281 4666 3915 4102 
Q 4550 3538 4550 2338 
Q 4550 1131 3912 565 
Q 3275 0 1925 0 
L 628 0 
L 628 4666 
z
" transform="scale(0.015625)"/>
     <path id="DejaVuSans-41" d="M 2188 4044 
L 1331 1722 
L 3047 1722 
L 2188 4044 
z
M 1831 4666 
L 2547 4666 
L 4325 0 
L 3669 0 
L 3244 1197 
L 1141 1197 
L 716 0 
L 50 0 
L 1831 4666 
z
" transform="scale(0.015625)"/>
     <path id="DejaVuSans-2d" d="M 313 2009 
L 1997 2009 
L 1997 1497 
L 313 1497 
L 313 2009 
z
" transform="scale(0.015625)"/>
     <path id="DejaVuSans-42" d="M 1259 2228 
L 1259 519 
L 2272 519 
Q 2781 519 3026 730 
Q 3272 941 3272 1375 
Q 3272 1813 3026 2020 
Q 2781 2228 2272 2228 
L 1259 2228 
z
M 1259 4147 
L 1259 2741 
L 2194 2741 
Q 2656 2741 2882 2914 
Q 3109 3088 3109 3444 
Q 3109 3797 2882 3972 
Q 2656 4147 2194 4147 
L 1259 4147 
z
M 628 4666 
L 2241 4666 
Q 2963 4666 3353 4366 
Q 3744 4066 3744 3513 
Q 3744 3084 3544 2831 
Q 3344 2578 2956 2516 
Q 3422 2416 3680 2098 
Q 3938 1781 3938 1306 
Q 3938 681 3513 340 
Q 3088 0 2303 0 
L 628 0 
L 628 4666 
z
" transform="scale(0.015625)"/>
     <path id="DejaVuSans-43" d="M 4122 4306 
L 4122 3641 
Q 3803 3938 3442 4084 
Q 3081 4231 2675 4231 
Q 1875 4231 1450 3742 
Q 1025 3253 1025 2328 
Q 1025 1406 1450 917 
Q 1875 428 2675 428 
Q 3081 428 3442 575 
Q 3803 722 4122 1019 
L 4122 359 
Q 3791 134 3420 21 
Q 3050 -91 2638 -91 
Q 1578 -91 968 557 
Q 359 1206 359 2328 
Q 359 3453 968 4101 
Q 1578 4750 2638 4750 
Q 3056 4750 3426 4639 
Q 3797 4528 4122 4306 
z
" transform="scale(0.015625)"/>
     <path id="DejaVuSans-6f" d="M 1959 3097 
Q 1497 3097 1228 2736 
Q 959 2375 959 1747 
Q 959 1119 1226 758 
Q 1494 397 1959 397 
Q 2419 397 2687 759 
Q 2956 1122 2956 1747 
Q 2956 2369 2687 2733 
Q 2419 3097 1959 3097 
z
M 1959 3584 
Q 2709 3584 3137 3096 
Q 3566 2609 3566 1747 
Q 3566 888 3137 398 
Q 2709 -91 1959 -91 
Q 1206 -91 779 398 
Q 353 888 353 1747 
Q 353 2609 779 3096 
Q 1206 3584 1959 3584 
z
" transform="scale(0.015625)"/>
     <path id="DejaVuSans-73" d="M 2834 3397 
L 2834 2853 
Q 2591 2978 2328 3040 
Q 2066 3103 1784 3103 
Q 1356 3103 1142 2972 
Q 928 2841 928 2578 
Q 928 2378 1081 2264 
Q 1234 2150 1697 2047 
L 1894 2003 
Q 2506 1872 2764 1633 
Q 3022 1394 3022 966 
Q 3022 478 2636 193 
Q 2250 -91 1575 -91 
Q 1294 -91 989 -36 
Q 684 19 347 128 
L 347 722 
Q 666 556 975 473 
Q 1284 391 1588 391 
Q 1994 391 2212 530 
Q 2431 669 2431 922 
Q 2431 1156 2273 1281 
Q 2116 1406 1581 1522 
L 1381 1569 
Q 847 1681 609 1914 
Q 372 2147 372 2553 
Q 372 3047 722 3315 
Q 1072 3584 1716 3584 
Q 2034 3584 2315 3537 
Q 2597 3491 2834 3397 
z
" transform="scale(0.015625)"/>
    </defs>
    <use xlink:href="#DejaVuSans-53"/>
    <use xlink:href="#DejaVuSans-69" x="63.476562"/>
    <use xlink:href="#DejaVuSans-6d" x="91.259766"/>
    <use xlink:href="#DejaVuSans-70" x="188.671875"/>
    <use xlink:href="#DejaVuSans-6c" x="252.148438"/>
    <use xlink:href="#DejaVuSans-65" x="279.931641"/>
    <use xlink:href="#DejaVuSans-20" x="341.455078"/>
    <use xlink:href="#DejaVuSans-50" x="373.242188"/>
    <use xlink:href="#DejaVuSans-65" x="429.919922"/>
    <use xlink:href="#DejaVuSans-6e" x="491.443359"/>
    <use xlink:href="#DejaVuSans-64" x="554.822266"/>
    <use xlink:href="#DejaVuSans-75" x="618.298828"/>
    <use xlink:href="#DejaVuSans-6c" x="681.677734"/>
    <use xlink:href="#DejaVuSans-75" x="709.460938"/>
    <use xlink:href="#DejaVuSans-6d" x="772.839844"/>
    <use xlink:href="#DejaVuSans-20" x="870.251953"/>
    <use xlink:href="#DejaVuSans-4e" x="902.039062"/>
    <use xlink:href="#DejaVuSans-65" x="976.84375"/>
    <use xlink:href="#DejaVuSans-75" x="1038.367188"/>
    <use xlink:href="#DejaVuSans-72" x="1101.746094"/>
    <use xlink:href="#DejaVuSans-61" x="1142.859375"/>
    <use xlink:href="#DejaVuSans-6c" x="1204.138672"/>
    <use xlink:href="#DejaVuSans-20" x="1231.921875"/>
    <use xlink:href="#DejaVuSans-49" x="1263.708984"/>
    <use xlink:href="#DejaVuSans-44" x="1293.201172"/>
    <use xlink:href="#DejaVuSans-41" x="1368.453125"/>
    <use xlink:href="#DejaVuSans-2d" x="1434.611328"/>
    <use xlink:href="#DejaVuSans-50" x="1470.695312"/>
    <use xlink:href="#DejaVuSans-42" x="1530.998047"/>
    <use xlink:href="#DejaVuSans-43" x="1597.851562"/>
    <use xlink:href="#DejaVuSans-20" x="1667.675781"/>
    <use xlink:href="#DejaVuSans-43" x="1699.462891"/>
    <use xlink:href="#DejaVuSans-6c" x="1769.287109"/>
    <use xlink:href="#DejaVuSans-6f" x="1797.070312"/>
    <use xlink:href="#DejaVuSans-73" x="1858.251953"/>
    <use xlink:href="#DejaVuSans-65" x="1910.351562"/>
    <use xlink:href="#DejaVuSans-64" x="1971.875"/>
    <use xlink:href="#DejaVuSans-2d" x="2035.351562"/>
    <use xlink:href="#DejaVuSans-6c" x="2071.435547"/>
    <use xlink:href="#DejaVuSans-6f" x="2099.21875"/>
    <use xlink:href="#DejaVuSans-6f" x="2160.400391"/>
    <use xlink:href="#DejaVuSans-70" x="2221.582031"/>
    <use xlink:href="#DejaVuSans-20" x="2285.058594"/>
    <use xlink:href="#DejaVuSans-72" x="2316.845703"/>
    <use xlink:href="#DejaVuSans-65" x="2355.708984"/>
    <use xlink:href="#DejaVuSans-73" x="2417.232422"/>
    <use xlink:href="#DejaVuSans-70" x="2469.332031"/>
    <use xlink:href="#DejaVuSans-6f" x="2532.808594"/>
    <use xlink:href="#DejaVuSans-6e" x="2593.990234"/>
    <use xlink:href="#DejaVuSans-73" x="2657.369141"/>
    <use xlink:href="#DejaVuSans-65" x="2709.46875"/>
   </g>
  </g>
 </g>
 <defs>
  <clipPath id="p60e999ccb0">
   <rect x="59.8025" y="42.48" width="292.505169" height="193.4575"/>
  </clipPath>
  <clipPath id="pb2070e2aa2">
   <rect x="413.454831" y="42.48" width="292.505169" height="193.4575"/>
  </clipPath>
 </defs>
</svg>
